<?xml version="1.0" encoding="UTF-8" standalone="no"?>
<svg
   xmlns:dc="http://purl.org/dc/elements/1.1/"
   xmlns:cc="http://creativecommons.org/ns#"
   xmlns:rdf="http://www.w3.org/1999/02/22-rdf-syntax-ns#"
   xmlns:svg="http://www.w3.org/2000/svg"
   xmlns="http://www.w3.org/2000/svg"
   xml:space="preserve"
   enable-background="new 0 0 128 128"
   viewBox="0 0 80 80"
   height="80"
   width="80"
   y="0px"
   x="0px"
   id="Layer_1"
   version="1.1"><metadata
   id="metadata13"><rdf:RDF><cc:Work
       rdf:about=""><dc:format>image/svg+xml</dc:format><dc:type
         rdf:resource="http://purl.org/dc/dcmitype/StillImage" /><dc:title></dc:title></cc:Work></rdf:RDF></metadata><defs
   id="defs11">
	

		
	</defs>

<path
   id="path1093"
   d="M 63.061998,35.625 V 40 H 68.4375 v 4.375 H 63.061998 V 48.75 H 68.4375 v 4.375 H 63.061998 V 57.5 H 68.4375 v 4.375 H 63.061998 V 66.25 H 68.4375 v 4.375 H 63.061998 V 75 H 68.4375 c 2.418281,0 4.375,-1.956719 4.375,-4.375 V 40 c 0,-2.418281 -1.956719,-4.375 -4.375,-4.375 z"
   style="fill:#ffffff;fill-opacity:0.627451;stroke-width:1" /><path
   id="path1145"
   d="m 11.5625,18.125 c -2.4182812,0 -4.375,1.956719 -4.375,4.375 v 48.125 c 0,2.418281 1.9567188,4.375 4.375,4.375 H 25.688 V 18.125 Z m 4.375,8.75 h 4.375 v 4.375 h -4.375 z m 0,8.75 h 4.375 V 40 h -4.375 z m 0,8.75 h 4.375 v 4.375 h -4.375 z m 0,8.75 h 4.375 V 57.5 h -4.375 z m 0,8.75 h 4.375 v 4.375 h -4.375 z"
   style="fill:#ffffff;fill-opacity:0.74509805;stroke-width:1" /><path
   id="path1143"
   d="m 29.0625,5 c -2.418281,0 -4.375,1.9567187 -4.375,4.375 V 18.125 75 h 39.375 V 35.625 9.375 C 64.0625,6.9567187 62.105781,5 59.6875,5 Z m 4.375,8.75 h 4.375 v 4.375 h -4.375 z m 8.75,0 h 4.375 v 4.375 h -4.375 z m 8.75,0 h 4.375 v 4.375 h -4.375 z m -17.5,8.75 h 4.375 v 4.375 h -4.375 z m 8.75,0 h 4.375 v 4.375 h -4.375 z m 8.75,0 h 4.375 v 4.375 h -4.375 z m -17.5,8.75 h 4.375 v 4.375 h -4.375 z m 8.75,0 h 4.375 v 4.375 h -4.375 z m 8.75,0 h 4.375 v 4.375 h -4.375 z m -17.5,8.75 h 4.375 v 4.375 h -4.375 z m 8.75,0 h 4.375 v 4.375 h -4.375 z m 8.75,0 h 4.375 v 4.375 h -4.375 z m -17.5,8.75 h 4.375 v 4.375 h -4.375 z m 8.75,0 h 4.375 v 4.375 h -4.375 z m 8.75,0 h 4.375 v 4.375 h -4.375 z m -17.5,8.75 h 4.375 v 4.375 h -4.375 z m 8.75,0 h 4.375 v 13.125 h -4.375 z m 8.75,0 h 4.375 v 4.375 h -4.375 z"
   style="fill:#ffffff;fill-opacity:1;stroke-width:1" /></svg>