<?xml version="1.0" encoding="UTF-8" standalone="no"?>
<svg
   xmlns:dc="http://purl.org/dc/elements/1.1/"
   xmlns:cc="http://creativecommons.org/ns#"
   xmlns:rdf="http://www.w3.org/1999/02/22-rdf-syntax-ns#"
   xmlns:svg="http://www.w3.org/2000/svg"
   xmlns="http://www.w3.org/2000/svg"
   id="svg5"
   height="80"
   width="80"
   version="1.1"
   viewBox="0 0 80 80">
  <metadata
     id="metadata11">
    <rdf:RDF>
      <cc:Work
         rdf:about="">
        <dc:format>image/svg+xml</dc:format>
        <dc:type
           rdf:resource="http://purl.org/dc/dcmitype/StillImage" />
        <dc:title></dc:title>
      </cc:Work>
    </rdf:RDF>
  </metadata>
  <defs
     id="defs9" />
  <path
     id="path960"
     d="M 19.374662,12.5 C 17.47635,12.5 15.9375,14.037139 15.9375,15.937162 V 64.061756 C 15.9375,65.96178 17.47635,67.5 19.374662,67.5 H 46.91841 V 53.533151 c 0,-1.794575 1.452126,-3.248127 3.247049,-3.248128 h 10.15702 3.739616 V 15.937162 C 64.062184,14.037139 62.524864,12.5 60.624932,12.5 Z m 5.156824,9.045506 h 30.937703 c 0.950055,0 1.71858,0.95139 1.71858,2.127972 0,1.176582 -0.768525,2.129054 -1.71858,2.129054 H 24.531486 c -0.950057,0 -1.718582,-0.952472 -1.718582,-2.129054 0,-1.176582 0.768615,-2.127972 1.718582,-2.127972 z m 0,9.07899 h 30.937703 c 0.950055,0 1.71858,0.952472 1.71858,2.129054 0,1.176582 -0.768525,2.127972 -1.71858,2.127972 H 24.531486 c -0.950057,0 -1.718582,-0.95139 -1.718582,-2.127972 0,-1.176582 0.768615,-2.129054 1.718582,-2.129054 z m 0,9.080072 h 30.937703 c 0.950055,0 1.71858,0.951391 1.71858,2.127973 0,1.176583 -0.768525,2.129054 -1.71858,2.129054 H 24.531486 c -0.950057,0 -1.718582,-0.952471 -1.718582,-2.129054 0,-1.176582 0.768615,-2.127973 1.718582,-2.127973 z m 0,9.195652 h 15.468311 c 0.950057,0 1.718581,0.952471 1.718581,2.129053 0,1.176582 -0.768524,2.127973 -1.718581,2.127973 H 24.531486 c -0.950057,0 -1.718582,-0.952469 -1.718582,-2.129054 0,-1.176491 0.768615,-2.127972 1.718582,-2.127972 z m 25.780878,4.848969 V 67.5 L 64.062095,53.749189 Z"
     style="fill:#ffffff;fill-opacity:1;stroke-width:0.99999988" />
  <g
     transform="matrix(0.16285815,0,0,0.16285815,-4.4424393,6.3141786)"
     id="g862"
     style="stroke-width:6.14031267" />
  <g
     transform="matrix(0.16285815,0,0,0.16285815,-4.4424393,6.3141786)"
     id="g864"
     style="stroke-width:6.14031267" />
  <g
     transform="matrix(0.16285815,0,0,0.16285815,-4.4424393,6.3141786)"
     id="g866"
     style="stroke-width:6.14031267" />
  <g
     transform="matrix(0.16285815,0,0,0.16285815,-4.4424393,6.3141786)"
     id="g868"
     style="stroke-width:6.14031267" />
  <g
     transform="matrix(0.16285815,0,0,0.16285815,-4.4424393,6.3141786)"
     id="g870"
     style="stroke-width:6.14031267" />
  <g
     transform="matrix(0.16285815,0,0,0.16285815,-4.4424393,6.3141786)"
     id="g872"
     style="stroke-width:6.14031267" />
  <g
     transform="matrix(0.16285815,0,0,0.16285815,-4.4424393,6.3141786)"
     id="g874"
     style="stroke-width:6.14031267" />
  <g
     transform="matrix(0.16285815,0,0,0.16285815,-4.4424393,6.3141786)"
     id="g876"
     style="stroke-width:6.14031267" />
  <g
     transform="matrix(0.16285815,0,0,0.16285815,-4.4424393,6.3141786)"
     id="g878"
     style="stroke-width:6.14031267" />
  <g
     transform="matrix(0.16285815,0,0,0.16285815,-4.4424393,6.3141786)"
     id="g880"
     style="stroke-width:6.14031267" />
  <g
     transform="matrix(0.16285815,0,0,0.16285815,-4.4424393,6.3141786)"
     id="g882"
     style="stroke-width:6.14031267" />
  <g
     transform="matrix(0.16285815,0,0,0.16285815,-4.4424393,6.3141786)"
     id="g884"
     style="stroke-width:6.14031267" />
  <g
     transform="matrix(0.16285815,0,0,0.16285815,-4.4424393,6.3141786)"
     id="g886"
     style="stroke-width:6.14031267" />
  <g
     transform="matrix(0.16285815,0,0,0.16285815,-4.4424393,6.3141786)"
     id="g888"
     style="stroke-width:6.14031267" />
  <g
     transform="matrix(0.16285815,0,0,0.16285815,-4.4424393,6.3141786)"
     id="g890"
     style="stroke-width:6.14031267" />
</svg>
