<?xml version="1.0" encoding="UTF-8" standalone="no"?>
<svg
   xmlns:dc="http://purl.org/dc/elements/1.1/"
   xmlns:cc="http://creativecommons.org/ns#"
   xmlns:rdf="http://www.w3.org/1999/02/22-rdf-syntax-ns#"
   xmlns:svg="http://www.w3.org/2000/svg"
   xmlns="http://www.w3.org/2000/svg"
   xmlns:sodipodi="http://sodipodi.sourceforge.net/DTD/sodipodi-0.dtd"
   xmlns:inkscape="http://www.inkscape.org/namespaces/inkscape"
   width="536.97699"
   height="536.45001"
   viewBox="0 0 429.58159 429.16001"
   version="1.1"
   id="svg2"
   inkscape:version="0.91 r13725"
   sodipodi:docname="circulosAK.svg"
   inkscape:export-filename="D:\Documentos e anotacoes\Arkantos\spartan\circulosAK.png"
   inkscape:export-xdpi="200"
   inkscape:export-ydpi="200">
  <metadata
     id="metadata29">
    <rdf:RDF>
      <cc:Work
         rdf:about="">
        <dc:format>image/svg+xml</dc:format>
        <dc:type
           rdf:resource="http://purl.org/dc/dcmitype/StillImage" />
        <dc:title></dc:title>
      </cc:Work>
    </rdf:RDF>
  </metadata>
  <defs
     id="defs27" />
  <sodipodi:namedview
     pagecolor="#ffffff"
     bordercolor="#8e968e"
     borderopacity="1"
     objecttolerance="10"
     gridtolerance="10"
     guidetolerance="10"
     inkscape:pageopacity="0"
     inkscape:pageshadow="2"
     inkscape:window-width="1920"
     inkscape:window-height="1027"
     id="namedview25"
     showgrid="false"
     showguides="true"
     inkscape:snap-bbox="false"
     inkscape:snap-nodes="true"
     inkscape:snap-others="false"
     inkscape:snap-object-midpoints="true"
     inkscape:snap-center="true"
     inkscape:snap-text-baseline="true"
     inkscape:snap-page="false"
     inkscape:object-paths="true"
     inkscape:snap-intersection-paths="true"
     inkscape:object-nodes="true"
     inkscape:snap-smooth-nodes="true"
     inkscape:snap-midpoints="true"
     inkscape:zoom="0.70710678"
     inkscape:cx="60.725497"
     inkscape:cy="233.50757"
     inkscape:window-x="-8"
     inkscape:window-y="-8"
     inkscape:window-maximized="1"
     inkscape:current-layer="svg2"
     inkscape:snap-global="false"
     units="px" />
  <g
     id="#8a1624ff"
     transform="translate(-106.95848,-173.44933)">
    <path
       style="opacity:1;fill:#8a1624"
       inkscape:connector-curvature="0"
       d="m 319.48,173.49 c 69.09,-1.4 137.34,33.51 177.16,89.89 41.37,56.91 51.44,134.73 26.12,200.35 -21.79,58.79 -70.85,106.54 -130.13,126.89 -65.51,23.36 -141.98,12.07 -197.85,-29.38 -54.36,-39.2 -88.11,-105.2 -87.81,-172.24 -0.65,-60.5 26.12,-120.57 71.4,-160.67 38.32,-34.58 89.49,-54.43 141.11,-54.84 m -2.04,8 c -93.81,0.34 -180.91,72.48 -198.2,164.75 -8.89,42.53 -3.76,87.78 14.24,127.31 24,53.38 71.87,95.26 127.95,111.99 40.96,12.59 85.81,11.91 126.4,-1.81 56.42,-18.65 103.69,-63.03 125.6,-118.29 27.49,-66.09 16.74,-146.17 -27.23,-202.65 -39.03,-51.99 -103.82,-83 -168.76,-81.3 z"
       id="path5" />
    <path
       style="opacity:1;fill:#8a1624"
       inkscape:connector-curvature="0"
       d="m 312.4,219.36 c 64.19,-4.54 128.8,31.69 158.66,88.61 20.36,37.36 25.73,82.57 14.63,123.65 -15.52,61.3 -68.41,110.97 -130.59,122.51 -67.05,14.21 -140.52,-17.64 -176.09,-76.17 -34.37,-53.45 -34.38,-126.39 0.16,-179.78 28.23,-45.74 79.59,-75.98 133.23,-78.82 z"
       id="path7" />
  </g>
  <g
     id="#670c1dff"
     transform="translate(-106.95848,-173.44933)">
    <path
       style="opacity:1;fill:#670c1d"
       inkscape:connector-curvature="0"
       d="m 317.44,181.49 c 64.94,-1.7 129.73,29.31 168.76,81.3 43.97,56.48 54.72,136.56 27.23,202.65 -21.91,55.26 -69.18,99.64 -125.6,118.29 -40.59,13.72 -85.44,14.4 -126.4,1.81 -56.08,-16.73 -103.95,-58.61 -127.95,-111.99 -18,-39.53 -23.13,-84.78 -14.24,-127.31 17.29,-92.27 104.39,-164.41 198.2,-164.75 m -10.99,6.04 c -82.12,5.37 -156.57,66.45 -177.93,145.92 -19.49,66.69 -0.87,142.67 47.22,192.81 45.95,49.56 117.97,72.98 184.28,59.69 37.5,-7.09 72.79,-25.2 100.5,-51.44 45.46,-42.47 69.16,-106.9 61.75,-168.71 C 515.65,302.5 476.71,243.78 421.08,212.9 386.53,193.25 346.06,184.42 306.45,187.53 Z"
       id="path10" />
    <path
       d="m 309.43,189.43 c 66.77,-4.82 134.64,27.17 173.5,81.67 40.07,54.18 49.29,129.17 23.69,191.49 -23.07,58.62 -75.71,104.42 -136.99,119.08 -42.6,10.58 -88.68,6.51 -128.71,-11.5 -52.04,-22.94 -92.98,-69.34 -109.26,-123.83 -12.85,-41.99 -11.33,-88.21 4.48,-129.2 26.35,-71.55 97.09,-123.8 173.29,-127.71 m -12.61,4.79 c 0.32,3.85 0.73,7.69 1.12,11.54 -2.36,0.31 -4.71,0.63 -7.07,0.95 -0.25,-1.14 -0.49,-2.27 -0.73,-3.39 1.19,-0.29 2.39,-0.58 3.6,-0.86 -0.32,-2.49 -0.64,-4.99 -0.96,-7.48 -3.92,0.56 -7.82,1.23 -11.71,1.98 0.76,3.7 1.5,7.4 2.21,11.1 -2.37,0.63 -4.74,1.25 -7.12,1.87 l -0.24,-3.81 c 1.06,-0.38 2.12,-0.76 3.18,-1.13 -0.68,-2.38 -1.35,-4.76 -2.03,-7.13 -3.74,1 -7.47,2.02 -11.19,3.08 1.03,3.65 2.06,7.3 3.07,10.96 -2.28,0.69 -4.55,1.38 -6.83,2.06 -0.38,-1.22 -0.75,-2.43 -1.13,-3.65 0.83,-0.14 2.49,-0.43 3.32,-0.58 -0.71,-2.58 -1.42,-5.15 -2.15,-7.73 -3.76,1.32 -7.51,2.64 -11.25,4.01 1.37,3.61 2.75,7.23 4.11,10.86 -2.27,0.78 -4.55,1.56 -6.82,2.34 -0.41,-1.07 -0.83,-2.13 -1.23,-3.2 1.1,-0.44 2.2,-0.87 3.31,-1.31 -1.01,-2.39 -2.02,-4.77 -3.05,-7.15 -3.51,1.52 -7.01,3.06 -10.48,4.64 1.5,3.56 3.05,7.09 4.56,10.64 -2.08,1.05 -4.17,2.1 -6.25,3.15 -0.54,-0.97 -1.08,-1.93 -1.62,-2.89 0.98,-0.81 1.96,-1.62 2.95,-2.42 -1.27,-2.23 -2.53,-4.45 -3.82,-6.65 -3.24,1.96 -6.49,3.9 -9.74,5.86 1.85,3.31 3.67,6.63 5.4,10 -1.96,1.11 -3.93,2.22 -5.89,3.32 l -2.4,-2.58 c 1.11,-0.65 2.22,-1.29 3.34,-1.93 -1.33,-2.32 -2.68,-4.61 -4.05,-6.89 -3.3,2.17 -6.55,4.43 -9.68,6.84 2.18,3.05 4.35,6.12 6.49,9.21 -1.99,1.39 -3.98,2.78 -5.96,4.17 -0.7,-0.98 -1.4,-1.94 -2.1,-2.91 0.98,-0.79 1.97,-1.57 2.96,-2.34 -1.61,-2.01 -3.21,-4.01 -4.83,-6.01 -3.07,2.37 -6.12,4.76 -9.17,7.15 2.42,2.96 4.83,5.93 7.21,8.92 -1.73,1.54 -3.45,3.07 -5.18,4.6 -0.83,-0.83 -1.65,-1.66 -2.48,-2.48 l 2.46,-2.88 c -1.66,-1.83 -3.33,-3.66 -4.99,-5.49 -2.96,2.54 -5.79,5.22 -8.47,8.05 2.71,2.57 5.21,5.34 7.55,8.25 -1.61,1.76 -3.2,3.52 -4.79,5.29 -0.87,-1.01 -1.75,-2.02 -2.62,-3.03 0.78,-0.81 1.57,-1.61 2.37,-2.42 -1.78,-1.76 -3.55,-3.52 -5.33,-5.28 -2.85,2.71 -5.55,5.57 -8.13,8.53 2.77,2.51 5.59,4.98 8.44,7.4 -1.42,1.87 -2.83,3.73 -4.24,5.59 -0.98,-0.59 -1.96,-1.19 -2.94,-1.78 l 1.77,-3.39 c -1.84,-1.62 -3.68,-3.23 -5.51,-4.85 -2.49,3.04 -4.95,6.11 -7.36,9.2 3.01,2.39 6.06,4.72 9.15,7.03 -1.37,1.92 -2.74,3.84 -4.1,5.77 -0.98,-0.57 -1.95,-1.14 -2.92,-1.7 0.54,-1.17 1.09,-2.34 1.64,-3.5 -2.08,-1.38 -4.16,-2.75 -6.25,-4.11 -2.13,3.18 -4.24,6.38 -6.34,9.58 3.14,2.08 6.33,4.1 9.52,6.1 -1.32,2.12 -2.65,4.23 -4,6.33 -0.52,-0.43 -2.17001,-1.49 -2.69001,-1.92 0.12,-1.24 1.82001,-3.15 1.82001,-3.15 l -6.56,-3.98 c -2.04,3.4 -4,6.84 -5.91,10.32 3.38,1.77 6.77,3.54 10.16,5.32 -1.17,2.5 -3.31001,6.37 -3.31001,6.37 l -3.215,-1.64 1.135,-2.79 c 0,0 -4.54999,-2.54 -6.60999,-3.51 -1.58,3.48 -3.13,6.97 -4.64,10.48 3.46,1.48 6.86,3.09 10.21,4.8 -0.65,2.09 -1.3,4.17 -1.93,6.26 -1.38,-0.29 -2.75,-0.57 -4.12,-0.85 0.49,-1.19 0.97,-2.37 1.46,-3.55 -2.38,-0.95 -4.75,-1.9 -7.12,-2.85 -1.42,3.68 -2.76,7.4 -4.07,11.13 3.59,1.19 7.18,2.35 10.79,3.47 -0.71,2.49 -1.44,4.97 -2.17,7.45 -0.7,-0.28 -2.1,-0.86 -2.81,-1.14 0.01,-1.29 0.03,-2.58 0.04,-3.86 -2.29,-0.72 -4.59,-1.43 -6.89,-2.14 -1.1,3.72 -2.15,7.45 -3.18,11.19 3.69,1.04 7.4,2.01 11.11,2.96 -0.45,2.27 -0.9,4.55 -1.34,6.83 -1.21,-0.19 -2.41,-0.37 -3.61,-0.56 0.11,-0.91 0.32,-2.74 0.43,-3.65 -2.47,-0.53 -4.94,-1.05 -7.41,-1.57 -0.75,3.9 -1.43,7.82 -2.02,11.75 3.66,0.52 7.32,1.04 10.98,1.54 -0.17,2.34 -0.36,4.67 -0.55,7 l -3.63,0.09 c 0.09,-0.92 0.28,-2.75 0.37,-3.67 -2.5,-0.45 -5.01,-0.89 -7.52,-1.33 -0.64,3.89 -1.13,7.8 -1.58,11.71 3.74,0.43 7.49,0.76 11.25,1.01 0.02,2.38 0.02,4.77 0.02,7.16 -1.21,0.08 -2.43,0.16 -3.64,0.25 -0.14,-1.28 -0.27,-2.55 -0.41,-3.81 -2.41,-0.21 -4.81,-0.42 -7.21,-0.63 -0.18,3.95 -0.3,7.9 -0.34,11.86 3.85,0.01 7.7,0.02 11.56,0.02 0.02,2.4 0.04,4.8 0.05,7.21 -0.85,-0.04 -2.56,-0.1 -3.41,-0.13 -0.22,-1.08 -0.44,-2.14 -0.66,-3.21 -2.47,0.05 -4.94,0.09 -7.41,0.13 0.18,3.99 0.44,7.99 0.87,11.97 3.72,-0.46 7.46,-0.81 11.2,-1.05 0.24,2.31 0.49,4.62 0.72,6.94 -1.11,0.28 -2.22,0.56 -3.33,0.86 -0.38,-1.34 -0.77,-2.68 -1.15,-4.01 -2.44,0.4 -4.87,0.8 -7.3,1.22 0.55,3.81 1.12,7.62 1.82,11.4 3.74,-0.57 7.49,-1.11 11.24,-1.59 l 1.2,6.99 c -0.84,0.19 -2.53,0.57 -3.37,0.76 -0.34,-1.19 -0.67,-2.37 -1,-3.55 -2.53,0.42 -5.05,0.84 -7.58,1.27 0.86,3.89 1.77,7.78 2.73,11.67 3.66,-1 7.34,-1.95 11.02,-2.87 0.64,2.33 1.28,4.65 1.92,6.98 -1.18,0.31 -2.36,0.63 -3.54,0.95 -0.45,-1.12 -0.9,-2.22 -1.35,-3.33 -2.38,0.72 -4.75,1.43 -7.13,2.16 1.18,3.72 2.35,7.45 3.51,11.17 3.61,-1.22 7.2,-2.5 10.77,-3.82 0.79,2.28 1.58,4.56 2.37,6.85 -1.11,0.4 -2.21,0.82 -3.31,1.23 -0.44,-1.08 -0.88,-2.15 -1.31,-3.21 -2.33,0.79 -4.66,1.58 -6.99,2.38 1.24,3.74 2.64,7.43 4.17,11.06 3.59,-1.44 7.17,-2.91 10.75,-4.38 0.86,2.26 1.73,4.51 2.6,6.77 -1.09,0.43 -2.17,0.86 -3.25,1.29 -0.46,-1.06 -0.91,-2.11 -1.37,-3.16 -2.33,1.04 -4.66,2.09 -6.98,3.15 1.63,3.52 3.38,6.98 5.2,10.41 3.33,-1.66 6.65,-3.34 9.99,-4.98 1.3,2.05 2.6,4.11 3.9,6.17 -1,0.59 -2,1.18 -3,1.79 -0.74,-0.98 -1.49,-1.95 -2.22,-2.92 -2.27,1.15 -4.53,2.31 -6.79,3.48 1.99,3.44 4.06,6.82 6.21,10.16 3.15,-2.01 6.28,-4.06 9.37,-6.15 1.4,2 2.79,4 4.18,6.02 -1.12,0.61 -2.24,1.23 -3.36,1.85 -0.61,-0.94 -1.22,-1.87 -1.82,-2.79 -2.07,1.43 -4.15,2.85 -6.24,4.26 2.22,3.27 4.51,6.49 6.87,9.67 3,-2.25 6.01,-4.49 9.02,-6.72 1.53,1.8 3.04,3.62 4.56,5.44 -0.88,0.76 -1.75,1.53 -2.63,2.3 -0.97,-0.83 -1.93,-1.66 -2.9,-2.47 -1.83,1.51 -3.65,3.02 -5.48,4.54 2.42,3.12 5.01,6.12 7.79,8.93 2.72,-2.52 5.5,-4.97 8.35,-7.34 1.57,1.69 3.14,3.39 4.72,5.09 -0.83,0.84 -1.66,1.68 -2.48,2.53 -0.79,-0.87 -1.58,-1.72 -2.37,-2.57 -1.95,1.71 -3.89,3.42 -5.83,5.15 2.69,2.85 5.45,5.64 8.27,8.37 2.66,-2.63 5.3,-5.28 7.95,-7.92 1.78,1.5 3.55,3 5.32,4.51 -0.74,0.86 -1.47,1.73 -2.21,2.61 -1.04,-0.61 -2.08,-1.21 -3.11,-1.8 -1.68,1.73 -3.36,3.46 -5.03,5.2 2.94,2.64 5.95,5.22 9.04,7.69 2.43,-2.87 4.81,-5.77 7.18,-8.68 1.9,1.41 3.81,2.84 5.72,4.26 -0.66,0.96 -1.32,1.93 -1.98,2.9 -1.09,-0.68 -2.17,-1.36 -3.25,-2.02 -1.47,2 -2.93,4.01 -4.38,6.03 3.06,2.42 6.21,4.73 9.43,6.95 2.05,-3.09 4.13,-6.17 6.22,-9.23 2.07,1.12 4.15,2.26 6.22,3.41 -0.64,1.1 -1.29,2.2 -1.93,3.31 -1.08,-0.55 -2.15,-1.09 -3.23,-1.63 l -4.08,6.24 c 3.32,2.09 6.69,4.12 10.1,6.08 1.94,-3.22 3.88,-6.45 5.86,-9.64 2.05,1.1 4.1,2.21 6.14,3.32 -0.4,1 -0.79,2 -1.19,3.01 -1.29,-0.37 -2.58,-0.74 -3.86,-1.09 -1.13,2.08 -2.25,4.17 -3.36,6.27 3.41,1.9 6.88,3.66 10.41,5.33 1.71,-3.44 3.37,-6.9 5.04,-10.36 2.2,1.14 4.4,2.29 6.61,3.46 -0.44,0.76 -1.32,2.29 -1.76,3.06 -1.03,-0.54 -2.05,-1.07 -3.07,-1.59 -1.05,2.35 -2.08,4.71 -3.11,7.07 3.6,1.59 7.28,3.01 11.03,4.25 1.23,-3.39 2.46,-6.78 3.64,-10.19 2.24,0.6 4.48,1.22 6.72,1.84 -0.15,1.27 -0.3,2.54 -0.44,3.83 -1.28,-0.32 -2.55,-0.63 -3.81,-0.94 -0.82,2.36 -1.62,4.72 -2.4,7.09 3.7,1.18 7.44,2.25 11.22,3.18 1,-3.54 2.03,-7.06 3.11,-10.57 2.33,0.52 4.67,1.05 7.01,1.58 -0.35,1.17 -0.7,2.34 -1.04,3.52 -1.19,-0.17 -2.37,-0.34 -3.55,-0.5 -0.58,2.36 -1.17,4.71 -1.74,7.08 3.75,1 7.54,1.9 11.34,2.73 0.79,-3.66 1.56,-7.33 2.33,-11 2.27,0.31 4.54,0.64 6.82,0.97 -0.07,1.3 -0.13,2.61 -0.18,3.93 -1.24,-0.25 -2.48,-0.49 -3.71,-0.73 -0.39,2.54 -0.76,5.08 -1.11,7.64 3.87,0.51 7.75,0.96 11.65,1.32 0.36,-3.71 0.75,-7.41 1.22,-11.1 2.42,0.23 4.84,0.45 7.27,0.68 -0.05,0.88 -0.14,2.63 -0.18,3.51 -1.32,-0.03 -2.63,-0.06 -3.94,-0.09 -0.11,2.59 -0.21,5.18 -0.3,7.77 3.8,0.12 7.6,0.25 11.4,0.34 0.2,-3.71 0.4,-7.41 0.62,-11.12 2.43,-0.04 4.87,-0.08 7.31,-0.12 -0.03,1.33 -0.06,2.67 -0.08,4.02 -1.28,-0.01 -2.57,-0.01 -3.84,0 -0.03,2.47 -0.05,4.94 -0.08,7.42 4,0.03 8.01,-0.07 12.01,-0.26 -0.24,-3.7 -0.51,-7.4 -0.81,-11.1 2.59,-0.16 5.17,-0.31 7.76,-0.44 l -0.32,3 c -1.05,0.41 -2.09,0.82 -3.13,1.24 0.11,2.36 0.18,4.72 0.24,7.09 3.97,-0.3 7.93,-0.72 11.89,-1.16 -0.49,-3.75 -1,-7.5 -1.53,-11.24 2.36,-0.33 4.71,-0.67 7.08,-1 0.25,1.1 0.5,2.22 0.75,3.33 -1.11,0.35 -2.23,0.7 -3.33,1.05 0.2,2.4 0.4,4.81 0.62,7.22 3.94,-0.58 7.86,-1.26 11.77,-2.06 -0.71,-3.65 -1.41,-7.3 -2.09,-10.95 2.19,-0.64 4.39,-1.27 6.59,-1.91 0.42,1.16 0.84,2.33 1.26,3.51 -1.21,0.44 -2.43,0.88 -3.63,1.33 0.62,2.36 1.25,4.73 1.89,7.1 3.76,-0.92 7.5,-1.94 11.21,-3.06 -1.02,-3.59 -2.05,-7.17 -3.08,-10.75 2.3,-0.75 4.59,-1.51 6.89,-2.26 0.31,1.18 0.62,2.37 0.93,3.57 -1.06,0.47 -2.12,0.93 -3.18,1.41 0.77,2.31 1.54,4.63 2.32,6.95 3.7,-1.25 7.39,-2.58 11.04,-3.99 -1.34,-3.56 -2.7,-7.11 -4.03,-10.67 2.27,-0.82 4.55,-1.62 6.84,-2.41 0.22,0.85 1.40499,3.57 1.40499,3.57 l -3.2,1.56 2.575,6.51 c 0,0 7.10001,-3.09 10.61001,-4.71 -1.48,-3.54 -3,-7.06 -4.5,-10.58 2.07,-0.95 4.15,-1.9 6.23,-2.83 0.63,1.05 1.27,2.11 1.92,3.17 -1.08,0.51 -2.16,1.04 -3.23,1.56 1.09,2.28 2.18,4.55 3.28,6.83 3.46,-1.84 6.88,-3.76 10.25,-5.78 -1.83,-3.29 -3.64,-6.58 -5.38,-9.91 2.03,-1.17 4.05,-2.33 6.08,-3.49 0.61,0.96 1.23,1.93 1.85,2.91 -1.01,0.73 -2.03,1.47 -3.03,2.22 1.35,2.09 2.71,4.18 4.08,6.27 3.31,-2.09 6.54,-4.34 9.61,-6.79 -2.18,-3.04 -4.33,-6.11 -6.44,-9.2 1.96,-1.26 3.92,-2.53 5.89,-3.8 0.71,0.82 1.43,1.65 2.15,2.49 -0.84,0.98 -1.67,1.96 -2.5,2.96 1.43,1.8 2.87,3.62 4.31,5.43 3.1,-2.33 6.16,-4.71 9.17,-7.17 -2.41,-2.97 -4.8,-5.95 -7.15,-8.95 1.91,-1.47 3.82,-2.94 5.74,-4.4 0.74,0.76 1.49,1.53 2.25,2.31 -0.85,0.98 -1.7,1.97 -2.54,2.97 1.55,1.8 3.1,3.6 4.67,5.4 2.97,-2.54 5.88,-5.14 8.77,-7.77 -2.69,-2.77 -5.36,-5.56 -7.99,-8.38 1.7,-1.63 3.4,-3.27 5.1,-4.91 0.86,0.83 1.73,1.66 2.6,2.49 l -2.46,2.4 c 1.78,1.86 3.56,3.72 5.33,5.59 2.81,-2.81 5.49,-5.74 8.03,-8.79 -2.77,-2.49 -5.55,-4.96 -8.36,-7.41 1.56,-1.91 3.13,-3.82 4.69,-5.73 0.92,0.87 1.83,1.75 2.76,2.63 -0.52,0.67 -1.55,2 -2.06,2.67 1.87,1.63 3.74,3.26 5.62,4.9 2.47,-3.03 4.88,-6.11 7.22,-9.24 -2.93,-2.31 -5.88,-4.6 -8.8,-6.91 1.39,-2.03 2.79,-4.06 4.19,-6.08 0.92,0.89 1.85,1.79 2.79,2.69 -0.48,0.65 -1.45,1.93 -1.94,2.57 2.06,1.54 4.13,3.08 6.19,4.62 2.16,-3.3 4.31,-6.61 6.41,-9.94 -3.09,-2.04 -6.2,-4.03 -9.32,-6 1.1,-2.06 2.2,-4.11 3.31,-6.16 1.1,0.62 2.19,1.24 3.3,1.87 -0.53,1.09 -1.05,2.18 -1.56,3.28 2.1,1.15 4.21,2.31 6.32,3.47 2.01,-3.36 3.92,-6.76 5.76,-10.21 -3.34,-1.74 -6.66,-3.49 -9.98,-5.24 1.01,-2.07 2.03,-4.14 3.04,-6.2 1.07,0.41 2.14,0.82 3.22,1.24 -0.38,1.27 -0.76,2.54 -1.14,3.82 2.25,0.85 4.5,1.71 6.75,2.57 1.91,-3.38 3.34,-6.99 4.13,-10.8 -3.27,-1.37 -6.55,-2.68 -9.87,-3.91 0.91,-2.29 1.83,-4.58 2.77,-6.86 1.07,0.43 2.14,0.88 3.22,1.33 -0.31,1.19 -0.62,2.38 -0.92,3.58 2.27,0.79 4.54,1.59 6.82,2.4 1.39,-3.6 2.72,-7.22 3.98,-10.87 -3.54,-1.24 -7.07,-2.51 -10.57,-3.87 0.57,-2.12 1.15,-4.25 1.73,-6.36 1.19,0.12 2.38,0.25 3.58,0.39 -0.26,1.22 -0.51,2.44 -0.76,3.67 2.38,0.79 4.77,1.58 7.17,2.36 1.1,-3.77 2.1,-7.57 3,-11.39 -3.59,-0.92 -7.2,-1.78 -10.82,-2.57 0.41,-2.37 0.83,-4.74 1.26,-7.11 1.13,0.15 2.27,0.3 3.41,0.46 0.05,1.35 0.11,2.7 0.17,4.06 2.3,0.37 4.59,0.75 6.9,1.14 0.78,-3.85 1.47,-7.71 2.02,-11.6 -3.67,-0.52 -7.33,-1.04 -10.99,-1.54 0.27,-2.33 0.55,-4.64 0.83,-6.96 1.31,0.09 2.62,0.19 3.93,0.29 -0.27,1.2 -0.53,2.41 -0.79,3.62 2.63,0.15 5.25,0.31 7.88,0.44 0.32,-3.69 0.64,-7.38 0.91,-11.08 -3.67,-0.45 -7.34,-0.86 -11.01,-1.22 0.06,-2.38 0.14,-4.76 0.26,-7.13 0.94,0.19 3.86529,0.27716 3.86529,0.27716 l -0.15983,3.74408 7.18453,0.16876 c 0,0 0.57001,-7.8 0.83001,-11.7 -4,-0.1 -7.99,-0.24 -11.98,-0.32 0.12,-2.67 0.36321,-7.32825 0.36321,-7.32825 l 3.72011,0.12046 -0.0672,3.27888 c 0,0 5.16388,0.23891 7.31388,0.13891 -0.07,-4 -0.19,-8 -0.31,-12 -3.78,0.47 -7.56,0.9 -11.34,1.36 -0.33,-2.52 -0.65,-5.03 -0.96,-7.55 0.9,0.01 2.68,0.01 3.58,0.02 0.22,1.09 0.45,2.19 0.69,3.29 2.38,-0.24 4.76,-0.45 7.15,-0.67 -0.23,-3.9 -0.62,-7.78 -1.19,-11.63 -3.82,0.5 -7.63,1.06 -11.44,1.63 -0.43,-2.45 -0.86,-4.89 -1.29,-7.33 1.27,-0.12 2.54,-0.25 3.82,-0.37 0.08,0.84 0.25,2.52 0.33,3.36 2.58,-0.46 5.17,-0.92 7.75,-1.4 -0.84,-3.81 -1.73,-7.6 -2.74,-11.36 -3.71,0.86 -7.41,1.72 -11.12,2.54 -0.45,-2.33 -0.89,-4.66 -1.32,-6.98 1.04,-0.3 2.08,-0.6 3.13,-0.89 0.37,1.18 0.74,2.37 1.11,3.56 2.38,-0.68 4.77,-1.34 7.16,-2.01 -1,-3.93 -2.17,-7.81 -3.54,-11.63 -3.51,1.38 -7.05,2.69 -10.6,3.95 -0.8,-2.31 -1.6,-4.63 -2.39,-6.95 1.09,-0.42 2.17,-0.85 3.27,-1.26 0.43,1.07 0.87,2.15 1.32,3.24 2.36,-0.75 4.72,-1.51 7.09,-2.26 -1.26,-3.76 -2.69,-7.45 -4.28,-11.08 -3.47,1.45 -6.93,2.92 -10.38,4.41 -0.97,-2.29 -1.92,-4.58 -2.86,-6.88 1.04,-0.45 2.08,-0.89 3.13,-1.33 0.46,1.07 0.92,2.14 1.39,3.22 2.37,-1 4.74,-2.02 7.11,-3.04 -1.68,-3.57 -3.45,-7.08 -5.34,-10.52 -3.35,1.75 -6.69,3.53 -10.03,5.31 -1.14,-2.24 -2.29,-4.47 -3.42,-6.71 1.1,-0.42 2.2,-0.84 3.31,-1.26 0.57,0.99 1.14,1.99 1.71,2.98 l 6.57,-3.93 c -1.98,-3.4 -4.05,-6.74 -6.2,-10.03 -3.1,2.05 -6.2,4.09 -9.3,6.14 -1.39,-2.03 -2.77,-4.05 -4.14,-6.08 1.03,-0.67 2.07,-1.33 3.11,-1.98 0.71,0.98 1.42,1.97 2.14,2.96 2.05,-1.44 4.1,-2.87 6.16,-4.29 -2.21,-3.23 -4.52,-6.38 -6.95,-9.44 -3.02,2.19 -6.02,4.43 -9,6.68 -1.47,-1.78 -2.94,-3.55 -4.41,-5.33 0.97,-0.89 1.95,-1.78 2.94,-2.66 0.72,1 1.45,2.01 2.19,3.02 1.92,-1.68 3.84,-3.35 5.77,-5.03 -2.47,-3.07 -5.02,-6.06 -7.64,-8.99 -2.78,2.58 -5.56,5.16 -8.3,7.78 -1.56,-1.67 -3.13,-3.35 -4.69,-5.01 0.65,-0.94 1.31,-1.88 1.98,-2.81 1.07,0.8 2.15,1.6 3.24,2.41 1.64,-1.78 3.3,-3.54 4.99,-5.28 -2.56,-2.9 -5.25,-5.67 -8.15,-8.21 -2.62,2.73 -5.24,5.47 -7.88,8.18 -1.75,-1.65 -3.51,-3.3 -5.25,-4.94 0.68,-0.81 1.38,-1.61 2.08,-2.41 1.04,0.59 2.09,1.19 3.14,1.78 1.7,-1.66 3.4,-3.33 5.11,-4.98 -2.85,-2.81 -5.87,-5.44 -9.03,-7.89 -2.39,2.89 -4.78,5.78 -7.18,8.66 -1.83,-1.41 -3.66,-2.82 -5.49,-4.22 0.55,-1.01 1.11,-2.01 1.68,-3 1.16,0.64 2.32,1.27 3.49,1.92 1.45,-1.97 2.91,-3.94 4.37,-5.91 -3.13,-2.33 -6.26,-4.63 -9.39,-6.96 -2.2,3.09 -4.4,6.18 -6.63,9.25 -2.01,-1.19 -4.02,-2.37 -6.03,-3.55 0.58,-1.03 1.16,-2.05 1.75,-3.07 1.13,0.5 2.26,1 3.39,1.51 1.35,-2.07 2.71,-4.14 4.06,-6.21 -3.32,-2.14 -6.68,-4.19 -10.09,-6.16 l -5.7,9.99 c -2.08,-1.15 -4.17,-2.29 -6.25,-3.41 0.53,-1.13 1.07,-2.24 1.61,-3.36 1.13,0.48 2.27,0.96 3.41,1.44 1.12,-2.18 2.25,-4.37 3.37,-6.55 -3.43,-1.84 -6.9,-3.59 -10.41,-5.23 -1.68,3.45 -3.33,6.9 -5.01,10.35 l -6.33,-3.12 c 0.42,-1.04 0.84,-2.08 1.27,-3.11 1.22,0.32 2.45,0.64 3.68,0.97 l 2.61,-6.9 c -3.6,-1.49 -7.25,-2.88 -10.95,-4.11 -1.22,3.43 -2.45,6.86 -3.67,10.3 -2.3,-0.68 -4.61,-1.38 -6.91,-2.08 0.32,-1.12 0.64,-2.25 0.97,-3.37 0.88,0.19 2.62,0.57 3.5,0.76 0.89,-2.33 1.79,-4.66 2.7,-6.98 -3.8,-1.33 -7.65,-2.5 -11.54,-3.49 -0.96,3.61 -1.93,7.21 -2.88,10.82 -2.55,-0.69 -5.09,-1.39 -7.63,-2.11 0.3,-0.71 0.9,-2.12 1.2,-2.83 1.26,0.01 2.53,0.02 3.81,0.04 0.63,-2.33 1.26,-4.66 1.9,-6.99 -3.86,-0.96 -7.72,-1.88 -11.6,-2.76 -0.72,3.72 -1.46,7.43 -2.26,11.13 -2.43,-0.37 -4.85,-0.74 -7.27,-1.12 0.31,-1.26 0.62,-2.51 0.94,-3.76 0.86,0.17 2.59,0.5 3.45,0.67 0.43,-2.46 0.86,-4.93 1.29,-7.39 -3.83,-0.72 -7.68,-1.32 -11.53,-1.92 -0.58,3.81 -1.1,7.63 -1.66,11.44 -2.36,-0.18 -4.71,-0.35 -7.05,-0.52 0,-1.15 0.01,-2.29 0.02,-3.44 l 3.84,-0.42 c 0.33,-2.37 0.67,-4.74 1.03,-7.1 -4.02,-0.46 -8.04,-0.75 -12.07,-0.94 l -0.03,11.58 c -2.92,-0.06 -7.45,-0.2 -7.45,-0.2 l -0.20125,-3.9 3.70125,-0.49 c 0,0 -0.02,-4.84 0.09,-7.08 -3.98,0.03 -7.96,0.16 -11.94,0.39 0.25,3.7 0.47,7.4 0.71,11.1 -2.47,0.21 -4.94,0.41 -7.4,0.6 -0.12,-1.19 -0.23,-2.37 -0.34,-3.56 1.29,-0.14 2.58,-0.27 3.88,-0.41 -0.29,-2.59 -0.57,-5.18 -0.87,-7.77 -3.77,0.43 -7.55,0.81 -11.32,1.18 z"
       id="path12"
       inkscape:connector-curvature="0"
       style="opacity:1;fill:#670c1d"
       sodipodi:nodetypes="ccccccccccccccccccccccccccccccccccccccccccccccccccccccccccccccccccccccccccccccccccccccccccccccccccccccccccccccccccccccccccccccccccccccccccccccccccccccccccccccccccccccccccccccccccccccccccccccccccccccccccccccccccccccccccccccccccccccccccccccccccccccccccccccccccccccccccccccccccccccccccccccccccccccccccccccccccccccccccccccccccccccccccccccccccccccccccccccccccccccccccccccccccccccccccccccccccccccccccccccccccccccccccccccccccccccccccccccccccccccccccccccccccccccccccccccccccccccccccccc" />
    <path
       d="m 299.03,196.07 c 2.47,-0.28 4.95,-0.54 7.42,-0.8 0.12,1.17 0.25,2.34 0.37,3.52 -1.23,0.17 -2.45,0.35 -3.68,0.53 0.17,2.41 0.34,4.83 0.52,7.24 3.69,-0.13 7.38,-0.39 11.06,-0.71 -0.13,-3.71 -0.22,-7.41 -0.22,-11.12 2.51,0 5.03,0.01 7.55,0.01 -0.04,0.88 -0.12,2.63 -0.16,3.51 -1.18,0.07 -2.36,0.15 -3.53,0.23 0.06,2.54 0.12,5.08 0.2,7.62 3.6,-0.04 7.21,-0.04 10.82,0 0.2,-3.72 0.38,-7.44 0.6,-11.16 2.61,0.05 5.23,0.09 7.85,0.14 -0.22,1.24 -0.44,2.49 -0.65,3.74 -0.9,0 -2.7,-0.01 -3.6,-0.01 -0.15,2.43 -0.32,4.86 -0.48,7.29 3.66,0.39 7.34,0.69 11.01,0.97 0.47,-3.65 0.9,-7.31 1.3,-10.96 2.5,0.31 5,0.63 7.51,0.95 -0.14,1.23 -0.28,2.47 -0.41,3.71 -1.23,-0.2 -2.44,-0.39 -3.66,-0.58 -0.32,2.51 -0.63,5.03 -0.92,7.55 3.47,0.58 6.93,1.16 10.4,1.75 0.94,-3.58 1.8,-7.18 2.67,-10.78 2.33,0.44 4.67,0.89 7.01,1.35 -0.14,1.24 -0.26,2.48 -0.39,3.73 -1.23,-0.27 -2.47,-0.52 -3.69,-0.78 -0.61,2.46 -1.2,4.92 -1.77,7.39 3.54,0.82 7.08,1.68 10.62,2.57 1.14,-3.69 2.31,-7.36 3.6,-10.99 2.29,0.98 4.59,1.95 6.89,2.92 -0.47,1.03 -0.94,2.06 -1.4,3.1 -1.17,-0.27 -2.33,-0.54 -3.49,-0.8 -0.72,2.25 -1.43,4.51 -2.16,6.76 3.46,1.24 6.91,2.53 10.32,3.89 1.45,-3.49 2.88,-6.98 4.36,-10.45 2.33,0.87 4.66,1.74 7,2.61 -0.38,1.01 -0.75,2.03 -1.12,3.05 -1.29,-0.29 -2.57,-0.58 -3.85,-0.86 -0.95,2.26 -1.9,4.53 -2.84,6.8 3.34,1.46 6.68,2.9 10.04,4.33 1.75,-3.35 3.44,-6.72 5.1,-10.12 2.21,1.23 4.42,2.46 6.64,3.69 -0.39,0.98 -0.78,1.97 -1.16,2.95 l -3.84,-1.14 c -1.09,2.08 -2.17,4.18 -3.24,6.27 3.14,1.77 6.29,3.51 9.45,5.24 1.96,-3.17 3.93,-6.35 5.92,-9.51 2.04,1.18 4.07,2.37 6.11,3.57 -0.54,1.22 -1.08,2.44 -1.61,3.66 -1.11,-0.7 -2.22,-1.4 -3.32,-2.09 -1.24,2.08 -2.48,4.16 -3.71,6.25 3.06,2.05 6.16,4.05 9.29,6 2.08,-3.05 4.18,-6.08 6.31,-9.1 2.01,1.4 4.03,2.8 6.04,4.2 -0.69,0.98 -1.38,1.96 -2.07,2.95 -1,-0.69 -2,-1.38 -2.98,-2.06 -1.47,2.02 -2.93,4.03 -4.39,6.05 2.77,2.48 5.79,4.65 8.94,6.63 2.34,-2.79 4.64,-5.61 6.8,-8.54 1.91,1.64 3.82,3.29 5.74,4.94 -0.72,0.94 -1.43,1.88 -2.13,2.82 -1.03,-0.72 -2.04,-1.44 -3.06,-2.15 -1.62,1.79 -3.23,3.59 -4.84,5.39 2.7,2.45 5.41,4.9 8.13,7.33 2.66,-2.55 5.26,-5.16 7.85,-7.78 1.8,1.69 3.59,3.4 5.39,5.1 -0.87,0.86 -1.73,1.72 -2.58,2.59 -0.94,-0.81 -1.87,-1.62 -2.79,-2.42 -1.7,1.71 -3.4,3.42 -5.09,5.12 2.42,2.68 4.84,5.36 7.27,8.04 2.9,-2.35 5.76,-4.75 8.6,-7.18 1.66,1.79 3.33,3.58 5.01,5.36 -0.92,0.88 -1.83,1.76 -2.74,2.65 -0.83,-0.97 -1.66,-1.93 -2.48,-2.9 -1.94,1.62 -3.89,3.24 -5.83,4.86 2.29,2.88 4.6,5.73 6.98,8.54 3.01,-2.19 6.02,-4.39 9.04,-6.58 1.41,2.02 2.82,4.05 4.23,6.07 -0.95,0.71 -1.9,1.42 -2.84,2.14 -0.81,-0.93 -1.62,-1.85 -2.42,-2.77 -1.97,1.42 -3.93,2.84 -5.89,4.26 2.08,3.03 4.14,6.07 6.18,9.14 3.16,-2.05 6.36,-4.04 9.59,-5.96 1.26,2.07 2.51,4.15 3.77,6.23 -1.09,0.71 -2.17,1.43 -3.24,2.14 -0.53,-1.09 -1.04,-2.18 -1.55,-3.27 -2.24,1.32 -4.47,2.65 -6.7,3.99 1.78,3.11 3.55,6.23 5.3,9.36 3.32,-1.55 6.6,-3.17 9.87,-4.81 1.29,2.13 2.57,4.27 3.86,6.42 -1.01,0.5 -2.01,1.01 -3,1.52 -0.98,-0.93 -1.96,-1.86 -2.93,-2.78 -2,0.97 -4.01,1.94 -6.01,2.9 1.51,3.37 3.08,6.72 4.74,10.03 3.4,-1.36 6.81,-2.73 10.23,-4.06 1.01,2.37 2,4.74 2.99,7.13 -0.84,0.2 -2.52,0.62 -3.36,0.83 -0.61,-1.1 -1.22,-2.2 -1.82,-3.29 -2.23,1 -4.47,1.99 -6.71,2.98 1.11,3.27 2.27,6.52 3.43,9.78 3.79,-0.67 7.54,-1.58 11.15,-2.94 0.74,2.39 1.49,4.77 2.24,7.16 -1.22,0.28 -2.43,0.57 -3.64,0.86 -0.45,-1.14 -0.89,-2.28 -1.33,-3.41 -2.35,0.8 -4.7,1.6 -7.04,2.41 1.01,3.44 2.01,6.9 3.04,10.34 3.64,-0.77 7.29,-1.57 10.94,-2.35 0.6,2.51 1.2,5.02 1.8,7.54 -1.21,0.11 -2.42,0.23 -3.62,0.35 -0.39,-1.11 -0.79,-2.21 -1.17,-3.3 -2.38,0.47 -4.75,0.95 -7.11,1.44 0.68,3.64 1.36,7.28 2.06,10.92 3.7,-0.65 7.41,-1.26 11.12,-1.88 0.37,2.59 0.73,5.19 1.08,7.79 -1.33,0.02 -2.65,0.05 -3.97,0.08 -0.04,-0.82 -0.11,-2.46 -0.14,-3.27 -2.56,0.23 -5.11,0.46 -7.66,0.69 0.47,3.68 0.91,7.36 1.36,11.05 3.74,-0.24 7.49,-0.41 11.24,-0.53 0.12,2.44 0.26,4.89 0.4,7.33 -0.9,0 -2.7,-0.02 -3.6,-0.03 0.02,-0.78 0.07,-2.33 0.09,-3.11 -2.62,-0.06 -5.23,-0.1 -7.84,-0.13 0,3.66 0.01,7.32 0.03,10.98 3.92,0.08 7.84,0.17 11.76,0.34 -0.18,2.52 -0.34,5.05 -0.51,7.58 -0.89,0.03 -2.67,0.09 -3.57,0.12 0.03,-1.3 0.07,-2.59 0.11,-3.88 -2.6,-0.06 -5.19,-0.11 -7.78,-0.15 -0.07,3.64 -0.13,7.29 -0.18,10.93 3.69,0.28 7.39,0.61 11.07,1.02 -0.26,2.4 -0.51,4.8 -0.76,7.2 -1.35,-0.04 -2.69,-0.07 -4.03,-0.09 0.28,-1.29 0.57,-2.57 0.86,-3.84 -2.61,-0.16 -5.22,-0.31 -7.82,-0.42 -0.41,3.49 -0.87,6.98 -1.37,10.46 3.72,0.75 7.45,1.41 11.19,2.03 -0.42,2.54 -0.83,5.08 -1.24,7.63 -1.19,-0.34 -2.39,-0.67 -3.57,-1 0.18,-1.21 0.37,-2.41 0.57,-3.61 l -7.59,-1.2 c -0.72,3.58 -1.45,7.15 -2.15,10.73 3.65,0.85 7.3,1.72 10.96,2.57 -0.69,2.51 -1.39,5.01 -2.11,7.51 -1.23,-0.42 -2.45,-0.84 -3.68,-1.26 0.3,-1.17 0.6,-2.33 0.9,-3.49 -2.36,-0.64 -4.72,-1.27 -7.07,-1.9 -1.03,3.55 -2.05,7.1 -3.05,10.67 3.47,1.12 6.93,2.24 10.4,3.37 -0.75,2.61 -1.53,5.21 -2.32,7.81 -1.06,-0.7 -2.11,-1.39 -3.16,-2.07 0.25,-1.15 0.51,-2.29 0.77,-3.43 -2.31,-0.7 -4.61,-1.41 -6.91,-2.11 -1.41,3.36 -2.73,6.76 -3.94,10.19 3.42,1.44 6.84,2.9 10.24,4.39 -1.02,2.3 -2.04,4.61 -3.06,6.92 -1,-0.4 -1.99,-0.79 -2.98,-1.17 0.32,-1.31 0.64,-2.62 0.97,-3.92 -2.25,-0.99 -4.51,-1.96 -6.76,-2.93 -1.58,3.15 -3.17,6.29 -4.77,9.43 3.2,2.06 6.5,3.97 9.82,5.83 -1.28,2.31 -2.58,4.61 -3.9,6.9 -0.91,-0.94 -1.81,-1.87 -2.7,-2.8 0.45,-1.04 0.9,-2.08 1.35,-3.11 -2.21,-1.03 -4.41,-2.05 -6.61,-3.07 -1.76,3.16 -3.54,6.32 -5.28,9.49 3.16,1.95 6.26,3.98 9.3,6.1 -1.25,2.05 -2.5,4.1 -3.74,6.15 -0.99,-0.57 -1.98,-1.13 -2.95,-1.69 0.42,-1.34 0.85,-2.67 1.29,-4 -2.02,-1.16 -4.03,-2.32 -6.04,-3.48 -2.13,2.96 -4.21,5.96 -6.21,9.01 3,2.22 6,4.43 9.03,6.61 -1.58,2 -3.16,4 -4.73,6 -0.9,-0.74 -1.79,-1.48 -2.67,-2.21 0.58,-1.07 1.17,-2.13 1.77,-3.18 -1.83,-1.47 -3.66,-2.93 -5.48,-4.39 -2.49,2.72 -4.89,5.52 -7.2,8.4 2.77,2.53 5.58,5.03 8.43,7.5 -1.85,1.9 -3.71,3.79 -5.58,5.68 -0.79,-0.96 -1.58,-1.91 -2.37,-2.86 0.83,-0.8 1.66,-1.6 2.5,-2.4 -1.81,-1.74 -3.61,-3.47 -5.43,-5.2 -2.65,2.63 -5.28,5.28 -7.88,7.96 2.64,2.61 5.25,5.24 7.88,7.87 -1.9,1.84 -3.8,3.68 -5.72,5.5 -0.78,-0.98 -1.55,-1.96 -2.32,-2.94 0.93,-0.77 1.87,-1.55 2.82,-2.31 -1.71,-1.95 -3.41,-3.89 -5.11,-5.83 -2.89,2.46 -5.73,4.97 -8.52,7.54 2.44,2.76 4.8,5.6 7.08,8.5 l -6,5.01 c -0.63,-1 -1.25,-1.99 -1.87,-2.98 0.87,-0.8 1.75,-1.6 2.63,-2.39 -1.45,-2 -2.9,-4.01 -4.35,-6 -3.07,2.03 -6.08,4.17 -9.04,6.38 2.05,3.16 4.15,6.28 6.28,9.38 -2.04,1.39 -4.08,2.76 -6.11,4.14 -0.71,-1.03 -1.41,-2.07 -2.1,-3.09 0.93,-0.8 1.86,-1.6 2.8,-2.39 -1.28,-1.98 -2.56,-3.96 -3.82,-5.94 -3.24,1.94 -6.45,3.91 -9.65,5.91 1.93,3.18 3.86,6.36 5.83,9.53 -2.2,1.3 -4.4,2.59 -6.6,3.88 -0.45,-0.64 -1.34,-1.91 -1.79,-2.54 0.97,-0.98 1.95,-1.95 2.93,-2.92 -1.17,-2.07 -2.33,-4.13 -3.5,-6.18 -3.24,1.62 -6.46,3.3 -9.63,5.07 1.53,3.38 3.1,6.76 4.66,10.14 -2.31,1.05 -4.62,2.11 -6.92,3.17 -0.41,-1.05 -0.82,-2.09 -1.21,-3.12 1.06,-0.72 2.13,-1.42 3.2,-2.12 -1.14,-2.25 -2.29,-4.49 -3.45,-6.72 -3.21,1.44 -6.44,2.83 -9.68,4.19 1.16,3.62 2.39,7.22 3.63,10.82 -2.41,0.78 -4.81,1.54 -7.22,2.3 -0.32,-0.76 -0.98,-2.27 -1.3,-3.02 1.26,-0.54 2.52,-1.08 3.79,-1.61 -0.86,-2.37 -1.72,-4.74 -2.6,-7.09 -3.44,1.12 -6.86,2.25 -10.28,3.4 0.94,3.64 1.94,7.28 2.94,10.93 -2.53,0.65 -5.05,1.29 -7.58,1.93 -0.09,-1.2 -0.18,-2.39 -0.26,-3.58 0.71,-0.25 2.13,-0.76 2.85,-1.01 -0.53,-2.51 -1.05,-5.01 -1.57,-7.5 -3.57,0.92 -7.14,1.86 -10.7,2.85 0.73,3.66 1.47,7.32 2.19,10.98 -2.52,0.43 -5.04,0.87 -7.55,1.31 -0.19,-0.84 -0.56,-2.51 -0.75,-3.35 1.21,-0.33 2.42,-0.65 3.63,-0.97 -0.37,-2.52 -0.75,-5.03 -1.13,-7.54 -3.62,0.6 -7.25,1.19 -10.87,1.81 0.48,3.66 0.81,7.33 1.07,11.01 -2.37,0.34 -4.73,0.69 -7.09,1.06 -0.34,-1.34 -0.68,-2.68 -1.01,-4 1.33,-0.04 2.67,-0.07 4,-0.09 -0.19,-2.57 -0.39,-5.13 -0.6,-7.68 -3.64,0.27 -7.28,0.52 -10.93,0.71 0.04,3.72 0.19,7.44 0.35,11.16 -2.55,0.22 -5.09,0.43 -7.63,0.65 -0.07,-1.22 -0.14,-2.43 -0.2,-3.64 1.26,-0.25 2.53,-0.5 3.8,-0.75 -0.1,-2.53 -0.18,-5.06 -0.27,-7.59 -3.57,0.1 -7.13,0.18 -10.7,0.27 -0.25,3.7 -0.46,7.4 -0.68,11.11 l -7.44,-0.12 c 0.01,-1.35 0.03,-2.7 0.05,-4.04 0.93,0.12 2.78,0.37 3.71,0.49 0.17,-2.53 0.33,-5.05 0.48,-7.57 -3.63,-0.39 -7.27,-0.73 -10.91,-1 -0.44,3.69 -0.87,7.4 -1.29,11.1 -2.61,-0.34 -5.21,-0.69 -7.81,-1.05 0.34,-0.96 0.83786,-3.60246 0.83786,-3.60246 l 3.89104,0.35208 c 0,0 0.5011,-4.86962 0.9711,-7.06962 -3.64,-0.81 -7.29,-1.51 -10.95,-2.18 -0.87,3.73 -1.64,7.47 -2.35,11.23 -2.48,-0.61 -4.95,-1.23 -7.42,-1.87 0.3,-1.25 0.6,-2.5 0.91,-3.73 1.23,0.25 2.47,0.51 3.7,0.78 0.5,-2.35 1.01,-4.69 1.52,-7.03 -3.59,-0.95 -7.18,-1.89 -10.78,-2.79 -1,3.66 -2.06,7.31 -3.16,10.96 -2.37,-0.78 -4.75,-1.55 -7.13,-2.31 0.3,-1.18 0.6,-2.36 0.9,-3.52 1.27,0.22 2.54,0.44 3.81,0.68 0.69,-2.3 1.38,-4.58 2.08,-6.87 -3.37,-1.19 -6.73,-2.39 -10.1,-3.58 -1.51,3.44 -2.91,6.93 -4.23,10.45 -2.39,-0.92 -4.78,-1.85 -7.16,-2.79 0.55,-1.09 1.11,-2.18 1.67,-3.26 1.21,0.31 2.42,0.63 3.63,0.96 0.78,-2.25 1.57,-4.5 2.36,-6.74 -3.31,-1.47 -6.63,-2.92 -9.96,-4.33 -1.71,3.41 -3.4,6.84 -5.09,10.27 -2.19,-1.27 -4.37,-2.53 -6.56,-3.8 0.59,-1.09 1.18,-2.18 1.77,-3.26 1.02,0.67 2.05,1.35 3.08,2.04 1.19,-2.29 2.38,-4.59 3.58,-6.87 -3.26,-1.73 -6.52,-3.47 -9.77,-5.2 -1.94,3.21 -3.9,6.42 -5.92,9.59 -2.08,-1.26 -4.16,-2.51 -6.24,-3.76 0.61,-1.03 1.22,-2.05 1.83,-3.07 1.11,0.51 2.23,1.02 3.35,1.54 1.28,-2.06 2.56,-4.12 3.85,-6.17 -3.11,-1.99 -6.2,-3.99 -9.28,-6.02 -2.12,3.09 -4.28,6.17 -6.52,9.19 -2.06,-1.44 -4.11,-2.87 -6.15,-4.31 0.67,-0.99 1.34,-1.97 2.02,-2.95 1.07,0.54 2.15,1.08 3.23,1.63 1.46,-1.85 2.91,-3.71 4.35,-5.57 -2.83,-2.27 -5.68,-4.49 -8.57,-6.67 -2.56,2.83 -5.07,5.71 -7.6,8.57 -1.77,-1.67 -3.54,-3.34 -5.31,-5 0.67,-0.95 1.35,-1.89 2.04,-2.83 0.98,0.77 1.97,1.55 2.97,2.34 1.68,-1.82 3.35,-3.65 5.02,-5.48 -2.71,-2.48 -5.44,-4.94 -8.18,-7.38 -2.67,2.61 -5.33,5.25 -8,7.88 -1.74,-1.77 -3.47,-3.55 -5.2,-5.32 0.77,-0.81 1.54,-1.62 2.32,-2.42 1.01,0.77 2.03,1.55 3.05,2.33 1.69,-1.7 3.39,-3.4 5.08,-5.1 -2.5,-2.73 -5.05,-5.41 -7.67,-8.02 -2.7,2.51 -5.47,4.95 -8.31,7.31 -1.73,-2.01 -3.45,-4.01 -5.17,-6.02 1,-0.54 2.01,-1.07 3.02,-1.59 0.95,0.74 1.89,1.49 2.84,2.25 1.77,-1.6 3.55,-3.21 5.33,-4.81 -2.2,-2.78 -4.39,-5.57 -6.56,-8.36 -3.19,2.08 -6.33,4.25 -9.48,6.4 L 163,498.1 c 0.96,-0.71 1.93,-1.42 2.89,-2.11 0.77,0.99 1.55,2 2.32,3.01 1.99,-1.43 3.99,-2.86 5.98,-4.28 -2,-3.09 -4.06,-6.13 -6.17,-9.14 -3.11,1.91 -6.21,3.85 -9.3,5.81 -1.36,-2.09 -2.71,-4.19 -4.03,-6.29 1.02,-0.7 2.05,-1.39 3.08,-2.07 0.71,1.03 1.41,2.07 2.12,3.12 2.05,-1.19 4.1,-2.37 6.16,-3.54 -1.67,-3.27 -3.43,-6.51 -5.23,-9.71 -3.4,1.65 -6.79,3.31 -10.19,4.96 -1.04,-2.05 -2.09,-4.1 -3.14,-6.14 1.07,-0.65 2.15,-1.29 3.23,-1.93 0.65,1.05 1.3,2.1 1.96,3.15 2.08,-1.1 4.16,-2.19 6.25,-3.27 -1.41,-3.32 -2.84,-6.62 -4.25,-9.93 -3.61,1.27 -7.16,2.66 -10.69,4.13 -0.95,-2.46 -1.9,-4.91 -2.84,-7.36 1.27,-0.22 2.53,-0.43 3.8,-0.64 0.38,1.06 0.77,2.12 1.15,3.19 l 6.93,-3 c -1.27,-3.4 -2.55,-6.79 -3.86,-10.18 -3.57,1.13 -7.16,2.21 -10.78,3.19 -0.71,-2.34 -1.43,-4.68 -2.14,-7.01 1.17,-0.34 2.34,-0.67 3.51,-0.99 0.44,1.12 0.88,2.24 1.33,3.37 2.37,-0.73 4.74,-1.46 7.11,-2.2 -1.05,-3.45 -2.09,-6.91 -3.14,-10.36 -3.65,0.81 -7.29,1.61 -10.95,2.37 -0.49,-2.43 -0.97,-4.84 -1.44,-7.26 1.08,-0.31 2.17,-0.61 3.25,-0.9 0.45,1.24 0.9,2.5 1.35,3.76 2.29,-0.6 4.58,-1.2 6.86,-1.8 -0.59,-3.55 -1.18,-7.11 -1.7,-10.67 -3.8,0.52 -7.59,1.05 -11.39,1.54 -0.28,-2.48 -0.55,-4.95 -0.82,-7.43 1.19,-0.15 2.39,-0.29 3.59,-0.43 0.16,1.27 0.31,2.55 0.46,3.83 2.48,-0.4 4.95,-0.79 7.43,-1.16 -0.39,-3.56 -0.77,-7.12 -1.09,-10.68 -3.86,0.08 -7.72,0.2 -11.57,0.26 -0.02,-2.46 -0.05,-4.91 -0.07,-7.37 1.29,0.05 2.59,0.1 3.88,0.16 -0.06,0.86 -0.17,2.58 -0.22,3.45 2.43,-0.14 4.87,-0.28 7.31,-0.42 0.06,-3.7 0.07,-7.41 0.08,-11.11 -3.76,-0.01 -7.53,-0.02 -11.29,0.01 0,-2.46 0.02,-4.92 0.05,-7.38 1.14,-0.08 2.28,-0.15 3.42,-0.21 0.16,1.19 0.32,2.39 0.49,3.59 2.38,0.15 4.77,0.29 7.16,0.44 0.19,-3.69 0.39,-7.39 0.69,-11.07 -3.78,-0.28 -7.55,-0.59 -11.32,-0.91 0.27,-2.47 0.53,-4.93 0.8,-7.39 1.29,0.07 2.59,0.14 3.88,0.22 -0.21,1.21 -0.41,2.42 -0.62,3.64 2.49,0.29 4.99,0.57 7.48,0.85 0.44,-3.61 0.89,-7.22 1.36,-10.82 -3.66,-0.73 -7.32,-1.41 -10.99,-2.08 0.49,-2.47 0.98,-4.93 1.47,-7.4 0.84,0.14 2.51,0.42 3.35,0.55 l -0.03,4.02 6.96,0.99 c 0.71,-3.57 1.43,-7.13 2.09,-10.7 -3.63,-0.86 -7.25,-1.73 -10.87,-2.62 0.78,-2.58 1.56,-5.15 2.36,-7.71 1.12,0.43 2.24,0.88 3.36,1.32 -0.29,1.19 -0.59,2.39 -0.88,3.59 2.34,0.7 4.68,1.4 7.03,2.1 1.07,-3.58 2.11,-7.17 3.08,-10.77 -3.41,-1.14 -6.82,-2.29 -10.22,-3.44 0.69,-2.36 1.39,-4.7 2.1,-7.04 1.19,0.29 2.39,0.59 3.59,0.89 -0.27,0.94 -0.8,2.82 -1.06,3.76 2.36,0.83 4.72,1.65 7.09,2.46 1.19,-3.38 2.43,-6.75 3.7,-10.11 -3.39,-1.61 -6.81,-3.16 -10.22,-4.72 1.17,-2.37 2.34,-4.75 3.52,-7.11 0.96,0.67 1.93,1.34 2.9,2.02 -0.49,1.06 -0.97,2.12 -1.45,3.19 2.27,1.01 4.55,2.01 6.83,3 1.55,-3.18 3.12,-6.35 4.71,-9.51 -3.21,-1.99 -6.47,-3.86 -9.76,-5.69 1.3,-2.14 2.6,-4.27 3.91,-6.4 1.03,0.56 2.07,1.11 3.11,1.67 -0.59,1.17 -1.17,2.33 -1.75,3.5 2.06,1.11 4.12,2.23 6.17,3.35 1.98,-3.08 3.92,-6.19 5.87,-9.29 -3.09,-2.06 -6.19,-4.09 -9.31,-6.11 1.33,-2.08 2.67,-4.16 4.02,-6.23 1.02,0.57 2.04,1.13 3.06,1.7 -0.64,1.19 -1.27,2.38 -1.91,3.57 2.02,1.23 4.04,2.45 6.07,3.67 2.14,-2.95 4.22,-5.95 6.2,-9.02 -2.87,-2.13 -5.72,-4.29 -8.56,-6.46 1.47,-2.02 2.95,-4.04 4.43,-6.05 0.97,0.72 1.94,1.45 2.91,2.18 -0.69,1.01 -1.37,2.03 -2.05,3.04 1.82,1.59 3.64,3.19 5.45,4.79 2.4,-2.87 4.77,-5.77 7.07,-8.73 -2.64,-2.46 -5.28,-4.89 -7.92,-7.34 1.68,-1.95 3.39,-3.88 5.1,-5.81 0.78,0.99 1.57,1.98 2.36,2.97 -0.71,0.93 -1.42,1.86 -2.12,2.8 1.71,1.54 3.42,3.08 5.14,4.62 2.63,-2.64 5.23,-5.31 7.81,-8 -2.66,-2.62 -5.25,-5.31 -7.78,-8.06 1.93,-1.58 3.85,-3.17 5.77,-4.75 0.76,0.79 1.52,1.59 2.28,2.39 -0.8,0.98 -1.6,1.97 -2.4,2.96 1.53,1.72 3.06,3.44 4.59,5.17 2.87,-2.4 5.72,-4.83 8.57,-7.26 -2.37,-2.89 -4.72,-5.81 -7.04,-8.75 2.04,-1.47 4.08,-2.93 6.13,-4.38 0.68,0.96 1.36,1.92 2.04,2.89 -0.91,0.83 -1.82,1.66 -2.73,2.5 1.5,1.78 3,3.56 4.51,5.33 2.82,-2.02 5.66,-4.02 8.52,-5.99 -1.84,-3.29 -3.85,-6.47 -5.89,-9.63 2.1,-1.37 4.21,-2.72 6.33,-4.05 l 2.1,3.03 c -1.04,0.7 -2.07,1.4 -3.1,2.1 1.18,2.03 2.36,4.05 3.54,6.09 3.2,-1.85 6.4,-3.72 9.61,-5.54 -1.82,-3.45 -5.37,-10.37 -5.37,-10.37 l 6.04999,-3.18 2.1,3.12 c 0,0 -1.69999,1.24 -2.75999,2.47 1.17,1.99 2.29,4.01 3.38,6.05 3.15,-1.78 6.33,-3.48 9.57,-5.1 -1.52,-3.48 -3.08,-6.94 -4.73,-10.37 2.28,-0.84 4.55,-1.69 6.83,-2.53 0.67,0.95 1.34,1.91 2.02,2.86 -1.26,0.57 -2.52,1.14 -3.78,1.7 1.1,2.27 2.21,4.53 3.33,6.79 3.21,-1.44 6.44,-2.83 9.69,-4.18 -1.16,-3.62 -2.45,-7.19 -3.86,-10.72 2.48,-0.71 4.95,-1.42 7.43,-2.13 0.43,1.06 0.86,2.11 1.29,3.17 -1.15,0.4 -2.29,0.8 -3.44,1.2 0.74,2.36 1.49,4.72 2.25,7.08 3.46,-1.1 6.93,-2.21 10.39,-3.35 -0.99,-3.52 -2.03,-7.03 -3.15,-10.51 2.54,-0.78 5.08,-1.54 7.63,-2.29 0.38,1.08 0.75,2.17 1.14,3.25 -1.28,0.56 -2.56,1.11 -3.83,1.67 0.63,2.31 1.27,4.63 1.92,6.95 3.55,-0.88 7.11,-1.74 10.68,-2.56 -0.73,-3.59 -1.47,-7.19 -2.19,-10.78 2.44,-0.51 4.9,-0.99 7.36,-1.45 0.29,1.11 0.58,2.22 0.89,3.34 -1.18,0.33 -2.35,0.66 -3.52,1 0.28,2.41 0.56,4.83 0.81,7.25 3.71,-0.55 7.41,-1.12 11.1,-1.75 -0.41,-3.67 -0.78,-7.34 -1.09,-11.01 m 9.41,14.46 c -69.46,4.55 -133.15,53.94 -154.84,120.08 -23.93,66.97 -2.15,146.84 52.25,192.56 49.74,43.88 124.75,55.77 185.59,29.28 57.3,-23.58 99.7,-79.04 107.46,-140.52 5.82,-42.01 -4.23,-85.91 -27.54,-121.32 -34.42,-53.69 -99.37,-85.63 -162.92,-80.08 z"
       id="path14"
       inkscape:connector-curvature="0"
       style="opacity:1;fill:#670c1d"
       sodipodi:nodetypes="cccccccccccccccccccccccccccccccccccccccccccccccccccccccccccccccccccccccccccccccccccccccccccccccccccccccccccccccccccccccccccccccccccccccccccccccccccccccccccccccccccccccccccccccccccccccccccccccccccccccccccccccccccccccccccccccccccccccccccccccccccccccccccccccccccccccccccccccccccccccccccccccccccccccccccccccccccccccccccccccccccccccccccccccccccccccccccccccccccccccccccccccccccccccccccccccccccccccccccccccccccccccccccccccccccccccccccccccccccccccccccccccccccccccccccccccccccccccccccc" />
    <path
       style="opacity:1;fill:#670c1d"
       inkscape:connector-curvature="0"
       d="m 310.42,212.42 c 63.9,-4.94 128.76,28.47 161.83,83.36 37.24,58.76 34.33,139.5 -7.01,195.44 -39.63,56.45 -114.3,84.84 -181.44,69.01 -65.92,-13.97 -120.56,-69.07 -133.89,-135.13 -14.25,-63.42 10.48,-133.42 61.42,-173.78 27.94,-22.82 63.11,-36.52 99.09,-38.9 m 1.98,6.94 c -53.64,2.84 -105,33.08 -133.23,78.82 -34.54,53.39 -34.53,126.33 -0.16,179.78 35.57,58.53 109.04,90.38 176.09,76.17 62.18,-11.54 115.07,-61.21 130.59,-122.51 11.1,-41.08 5.73,-86.29 -14.63,-123.65 C 441.2,251.05 376.59,214.82 312.4,219.36 Z"
       id="path16" />
  </g>
  <g
     id="#deb857ff"
     transform="translate(-106.95848,-173.44933)">
    <path
       style="opacity:1;fill:#deb857"
       inkscape:connector-curvature="0"
       d="m 306.45,187.53 c 39.61,-3.11 80.08,5.72 114.63,25.37 55.63,30.88 94.57,89.6 101.19,152.9 7.41,61.81 -16.29,126.24 -61.75,168.71 -27.71,26.24 -63,44.35 -100.5,51.44 C 293.71,599.24 221.69,575.82 175.74,526.26 127.65,476.12 109.03,400.14 128.52,333.45 149.88,253.98 224.33,192.9 306.45,187.53 m 2.98,1.9 c -76.2,3.91 -146.94,56.16 -173.29,127.71 -15.81,40.99 -17.33,87.21 -4.48,129.2 16.28,54.49 57.22,100.89 109.26,123.83 40.03,18.01 86.11,22.08 128.71,11.5 C 430.91,567.01 483.55,521.21 506.62,462.59 532.22,400.27 523,325.28 482.93,271.1 444.07,216.6 376.2,184.61 309.43,189.43 Z"
       id="path19" />
    <path
       d="m 296.82,194.22 c 3.77,-0.37 7.55,-0.75 11.32,-1.18 0.3,2.59 0.58,5.18 0.87,7.77 -1.3,0.14 -2.59,0.27 -3.88,0.41 0.11,1.19 0.22,2.37 0.34,3.56 2.46,-0.19 4.93,-0.39 7.4,-0.6 -0.24,-3.7 -0.46,-7.4 -0.71,-11.1 3.98,-0.23 7.96,-0.36 11.94,-0.39 -0.11,2.24 -0.09,7.08 -0.09,7.08 l -3.70125,0.49 0.20125,3.9 c 0,0 4.53,0.14 7.45,0.2 l 0.03,-11.58 c 4.03,0.19 8.05,0.48 12.07,0.94 -0.36,2.36 -0.7,4.73 -1.03,7.1 l -3.84,0.42 c -0.01,1.15 -0.02,2.29 -0.02,3.44 2.34,0.17 4.69,0.34 7.05,0.52 0.56,-3.81 1.08,-7.63 1.66,-11.44 3.85,0.6 7.7,1.2 11.53,1.92 -0.43,2.46 -0.86,4.93 -1.29,7.39 -0.86,-0.17 -2.59,-0.5 -3.45,-0.67 -0.32,1.25 -0.63,2.5 -0.94,3.76 2.42,0.38 4.84,0.75 7.27,1.12 0.8,-3.7 1.54,-7.41 2.26,-11.13 3.88,0.88 7.74,1.8 11.6,2.76 -0.64,2.33 -1.27,4.66 -1.9,6.99 -1.28,-0.02 -2.55,-0.03 -3.81,-0.04 -0.3,0.71 -0.9,2.12 -1.2,2.83 2.54,0.72 5.08,1.42 7.63,2.11 0.95,-3.61 1.92,-7.21 2.88,-10.82 3.89,0.99 7.74,2.16 11.54,3.49 -0.91,2.32 -1.81,4.65 -2.7,6.98 -0.88,-0.19 -2.62,-0.57 -3.5,-0.76 -0.33,1.12 -0.65,2.25 -0.97,3.37 2.3,0.7 4.61,1.4 6.91,2.08 1.22,-3.44 2.45,-6.87 3.67,-10.3 3.7,1.23 7.35,2.62 10.95,4.11 l -2.61,6.9 c -1.23,-0.33 -2.46,-0.65 -3.68,-0.97 -0.43,1.03 -0.85,2.07 -1.27,3.11 l 6.33,3.12 c 1.68,-3.45 3.33,-6.9 5.01,-10.35 3.51,1.64 6.98,3.39 10.41,5.23 -1.12,2.18 -2.25,4.37 -3.37,6.55 -1.14,-0.48 -2.28,-0.96 -3.41,-1.44 -0.54,1.12 -1.08,2.23 -1.61,3.36 2.08,1.12 4.17,2.26 6.25,3.41 l 5.7,-9.99 c 3.41,1.97 6.77,4.02 10.09,6.16 -1.35,2.07 -2.71,4.14 -4.06,6.21 -1.13,-0.51 -2.26,-1.01 -3.39,-1.51 -0.59,1.02 -1.17,2.04 -1.75,3.07 2.01,1.18 4.02,2.36 6.03,3.55 2.23,-3.07 4.43,-6.16 6.63,-9.25 3.13,2.33 6.26,4.63 9.39,6.96 -1.46,1.97 -2.92,3.94 -4.37,5.91 -1.17,-0.65 -2.33,-1.28 -3.49,-1.92 -0.57,0.99 -1.13,1.99 -1.68,3 1.83,1.4 3.66,2.81 5.49,4.22 2.4,-2.88 4.79,-5.77 7.18,-8.66 3.16,2.45 6.18,5.08 9.03,7.89 -1.71,1.65 -3.41,3.32 -5.11,4.98 -1.05,-0.59 -2.1,-1.19 -3.14,-1.78 -0.7,0.8 -1.4,1.6 -2.08,2.41 1.74,1.64 3.5,3.29 5.25,4.94 2.64,-2.71 5.26,-5.45 7.88,-8.18 2.9,2.54 5.59,5.31 8.15,8.21 -1.69,1.74 -3.35,3.5 -4.99,5.28 -1.09,-0.81 -2.17,-1.61 -3.24,-2.41 -0.67,0.93 -1.33,1.87 -1.98,2.81 1.56,1.66 3.13,3.34 4.69,5.01 2.74,-2.62 5.52,-5.2 8.3,-7.78 2.62,2.93 5.17,5.92 7.64,8.99 -1.93,1.68 -3.85,3.35 -5.77,5.03 -0.74,-1.01 -1.47,-2.02 -2.19,-3.02 -0.99,0.88 -1.97,1.77 -2.94,2.66 1.47,1.78 2.94,3.55 4.41,5.33 2.98,-2.25 5.98,-4.49 9,-6.68 2.43,3.06 4.74,6.21 6.95,9.44 -2.06,1.42 -4.11,2.85 -6.16,4.29 -0.72,-0.99 -1.43,-1.98 -2.14,-2.96 -1.04,0.65 -2.08,1.31 -3.11,1.98 1.37,2.03 2.75,4.05 4.14,6.08 3.1,-2.05 6.2,-4.09 9.3,-6.14 2.15,3.29 4.22,6.63 6.2,10.03 l -6.57,3.93 c -0.57,-0.99 -1.14,-1.99 -1.71,-2.98 -1.11,0.42 -2.21,0.84 -3.31,1.26 1.13,2.24 2.28,4.47 3.42,6.71 3.34,-1.78 6.68,-3.56 10.03,-5.31 1.89,3.44 3.66,6.95 5.34,10.52 -2.37,1.02 -4.74,2.04 -7.11,3.04 -0.47,-1.08 -0.93,-2.15 -1.39,-3.22 -1.05,0.44 -2.09,0.88 -3.13,1.33 0.94,2.3 1.89,4.59 2.86,6.88 3.45,-1.49 6.91,-2.96 10.38,-4.41 1.59,3.63 3.02,7.32 4.28,11.08 -2.37,0.75 -4.73,1.51 -7.09,2.26 -0.45,-1.09 -0.89,-2.17 -1.32,-3.24 -1.1,0.41 -2.18,0.84 -3.27,1.26 0.79,2.32 1.59,4.64 2.39,6.95 3.55,-1.26 7.09,-2.57 10.6,-3.95 1.37,3.82 2.54,7.7 3.54,11.63 -2.39,0.67 -4.78,1.33 -7.16,2.01 -0.37,-1.19 -0.74,-2.38 -1.11,-3.56 -1.05,0.29 -2.09,0.59 -3.13,0.89 0.43,2.32 0.87,4.65 1.32,6.98 3.71,-0.82 7.41,-1.68 11.12,-2.54 1.01,3.76 1.9,7.55 2.74,11.36 -2.58,0.48 -5.17,0.94 -7.75,1.4 -0.08,-0.84 -0.25,-2.52 -0.33,-3.36 -1.28,0.12 -2.55,0.25 -3.82,0.37 0.43,2.44 0.86,4.88 1.29,7.33 3.81,-0.57 7.62,-1.13 11.44,-1.63 0.57,3.85 0.96,7.73 1.19,11.63 -2.39,0.22 -4.77,0.43 -7.15,0.67 -0.24,-1.1 -0.47,-2.2 -0.69,-3.29 -0.9,-0.01 -2.68,-0.01 -3.58,-0.02 0.31,2.52 0.63,5.03 0.96,7.55 3.78,-0.46 7.56,-0.89 11.34,-1.36 0.12,4 0.24,8 0.31,12 -2.15,0.1 -7.31388,-0.13891 -7.31388,-0.13891 l 0.0672,-3.27888 -3.72011,-0.12046 c 0,0 -0.24322,4.65825 -0.36322,7.32825 3.99,0.08 7.98,0.22 11.98,0.32 -0.26,3.9 -0.83,11.7 -0.83,11.7 l -7.18453,-0.16876 0.15983,-3.74408 c 0,0 -2.9253,-0.0872 -3.8653,-0.27716 -0.12,2.37 -0.2,4.75 -0.26,7.13 3.67,0.36 7.34,0.77 11.01,1.22 -0.27,3.7 -0.59,7.39 -0.91,11.08 -2.63,-0.13 -5.25,-0.29 -7.88,-0.44 0.26,-1.21 0.52,-2.42 0.79,-3.62 -1.31,-0.1 -2.62,-0.2 -3.93,-0.29 -0.28,2.32 -0.56,4.63 -0.83,6.96 3.66,0.5 7.32,1.02 10.99,1.54 -0.55,3.89 -1.24,7.75 -2.02,11.6 -2.31,-0.39 -4.6,-0.77 -6.9,-1.14 -0.06,-1.36 -0.12,-2.71 -0.17,-4.06 -1.14,-0.16 -2.28,-0.31 -3.41,-0.46 -0.43,2.37 -0.85,4.74 -1.26,7.11 3.62,0.79 7.23,1.65 10.82,2.57 -0.9,3.82 -1.9,7.62 -3,11.39 -2.4,-0.78 -4.79,-1.57 -7.17,-2.36 0.25,-1.23 0.5,-2.45 0.76,-3.67 -1.2,-0.14 -2.39,-0.27 -3.58,-0.39 -0.58,2.11 -1.16,4.24 -1.73,6.36 3.5,1.36 7.03,2.63 10.57,3.87 -1.26,3.65 -2.59,7.27 -3.98,10.87 -2.28,-0.81 -4.55,-1.61 -6.82,-2.4 0.3,-1.2 0.61,-2.39 0.92,-3.58 -1.08,-0.45 -2.15,-0.9 -3.22,-1.33 -0.94,2.28 -1.86,4.57 -2.77,6.86 3.32,1.23 6.6,2.54 9.87,3.91 -0.79,3.81 -2.22,7.42 -4.13,10.8 -2.25,-0.86 -4.5,-1.72 -6.75,-2.57 0.38,-1.28 0.76,-2.55 1.14,-3.82 -1.08,-0.42 -2.15,-0.83 -3.22,-1.24 -1.01,2.06 -2.03,4.13 -3.04,6.2 3.32,1.75 6.64,3.5 9.98,5.24 -1.84,3.45 -3.75,6.85 -5.76,10.21 -2.11,-1.16 -4.22,-2.32 -6.32,-3.47 0.51,-1.1 1.03,-2.19 1.56,-3.28 -1.11,-0.63 -2.2,-1.25 -3.3,-1.87 -1.11,2.05 -2.21,4.1 -3.31,6.16 3.12,1.97 6.23,3.96 9.32,6 -2.1,3.33 -4.25,6.64 -6.41,9.94 -2.06,-1.54 -4.13,-3.08 -6.19,-4.62 0.49,-0.64 1.46,-1.92 1.94,-2.57 -0.94,-0.9 -1.87,-1.8 -2.79,-2.69 -1.4,2.02 -2.8,4.05 -4.19,6.08 2.92,2.31 5.87,4.6 8.8,6.91 -2.34,3.13 -4.75,6.21 -7.22,9.24 -1.88,-1.64 -3.75,-3.27 -5.62,-4.9 0.51,-0.67 1.54,-2 2.06,-2.67 -0.93,-0.88 -1.84,-1.76 -2.76,-2.63 -1.56,1.91 -3.13,3.82 -4.69,5.73 2.81,2.45 5.59,4.92 8.36,7.41 -2.54,3.05 -5.22,5.98 -8.03,8.79 -1.77,-1.87 -3.55,-3.73 -5.33,-5.59 l 2.46,-2.4 c -0.87,-0.83 -1.74,-1.66 -2.6,-2.49 -1.7,1.64 -3.4,3.28 -5.1,4.91 2.63,2.82 5.3,5.61 7.99,8.38 -2.89,2.63 -5.8,5.23 -8.77,7.77 -1.57,-1.8 -3.12,-3.6 -4.67,-5.4 0.84,-1 1.69,-1.99 2.54,-2.97 -0.76,-0.78 -1.51,-1.55 -2.25,-2.31 -1.92,1.46 -3.83,2.93 -5.74,4.4 2.35,3 4.74,5.98 7.15,8.95 -3.01,2.46 -6.07,4.84 -9.17,7.17 -1.44,-1.81 -2.88,-3.63 -4.31,-5.43 0.83,-1 1.66,-1.98 2.5,-2.96 -0.72,-0.84 -1.44,-1.67 -2.15,-2.49 -1.97,1.27 -3.93,2.54 -5.89,3.8 2.11,3.09 4.26,6.16 6.44,9.2 -3.07,2.45 -6.3,4.7 -9.61,6.79 -1.37,-2.09 -2.73,-4.18 -4.08,-6.27 1,-0.75 2.02,-1.49 3.03,-2.22 -0.62,-0.98 -1.24,-1.95 -1.85,-2.91 -2.03,1.16 -4.05,2.32 -6.08,3.49 1.74,3.33 3.55,6.62 5.38,9.91 -3.37,2.02 -6.79,3.94 -10.25,5.78 -1.1,-2.28 -2.19,-4.55 -3.28,-6.83 1.07,-0.52 2.15,-1.05 3.23,-1.56 -0.65,-1.06 -1.29,-2.12 -1.92,-3.17 -2.08,0.93 -4.16,1.88 -6.23,2.83 1.5,3.52 3.02,7.04 4.5,10.58 -3.51,1.62 -10.61,4.71 -10.61,4.71 l -2.575,-6.51 3.2,-1.56 c 0,0 -1.185,-2.72 -1.405,-3.57 -2.29,0.79 -4.57,1.59 -6.84,2.41 1.33,3.56 2.69,7.11 4.03,10.67 -3.65,1.41 -7.34,2.74 -11.04,3.99 -0.78,-2.32 -1.55,-4.64 -2.32,-6.95 1.06,-0.48 2.12,-0.94 3.18,-1.41 -0.31,-1.2 -0.62,-2.39 -0.93,-3.57 -2.3,0.75 -4.59,1.51 -6.89,2.26 1.03,3.58 2.06,7.16 3.08,10.75 -3.71,1.12 -7.45,2.14 -11.21,3.06 -0.64,-2.37 -1.27,-4.74 -1.89,-7.1 1.2,-0.45 2.42,-0.89 3.63,-1.33 -0.42,-1.18 -0.84,-2.35 -1.26,-3.51 -2.2,0.64 -4.4,1.27 -6.59,1.91 0.68,3.65 1.38,7.3 2.09,10.95 -3.91,0.8 -7.83,1.48 -11.77,2.06 -0.22,-2.41 -0.42,-4.82 -0.62,-7.22 1.1,-0.35 2.22,-0.7 3.33,-1.05 -0.25,-1.11 -0.5,-2.23 -0.75,-3.33 -2.37,0.33 -4.72,0.67 -7.08,1 0.53,3.74 1.04,7.49 1.53,11.24 -3.96,0.44 -7.92,0.86 -11.89,1.16 -0.06,-2.37 -0.13,-4.73 -0.24,-7.09 1.04,-0.42 2.08,-0.83 3.13,-1.24 l 0.32,-3 c -2.59,0.13 -5.17,0.28 -7.76,0.44 0.3,3.7 0.57,7.4 0.81,11.1 -4,0.19 -8.01,0.29 -12.01,0.26 0.03,-2.48 0.05,-4.95 0.08,-7.42 1.27,-0.01 2.56,-0.01 3.84,0 0.02,-1.35 0.05,-2.69 0.08,-4.02 -2.44,0.04 -4.88,0.08 -7.31,0.12 -0.22,3.71 -0.42,7.41 -0.62,11.12 -3.8,-0.09 -7.6,-0.22 -11.4,-0.34 0.09,-2.59 0.19,-5.18 0.3,-7.77 1.31,0.03 2.62,0.06 3.94,0.09 0.04,-0.88 0.13,-2.63 0.18,-3.51 -2.43,-0.23 -4.85,-0.45 -7.27,-0.68 -0.47,3.69 -0.86,7.39 -1.22,11.1 -3.9,-0.36 -7.78,-0.81 -11.65,-1.32 0.35,-2.56 0.72,-5.1 1.11,-7.64 1.23,0.24 2.47,0.48 3.71,0.73 0.05,-1.32 0.11,-2.63 0.18,-3.93 -2.28,-0.33 -4.55,-0.66 -6.82,-0.97 -0.77,3.67 -1.54,7.34 -2.33,11 -3.8,-0.83 -7.59,-1.73 -11.34,-2.73 0.57,-2.37 1.16,-4.72 1.74,-7.08 1.18,0.16 2.36,0.33 3.55,0.5 0.34,-1.18 0.69,-2.35 1.04,-3.52 -2.34,-0.53 -4.68,-1.06 -7.01,-1.58 -1.08,3.51 -2.11,7.03 -3.11,10.57 -3.78,-0.93 -7.52,-2 -11.22,-3.18 0.78,-2.37 1.58,-4.73 2.4,-7.09 1.26,0.31 2.53,0.62 3.81,0.94 0.14,-1.29 0.29,-2.56 0.44,-3.83 -2.24,-0.62 -4.48,-1.24 -6.72,-1.84 -1.18,3.41 -2.41,6.8 -3.64,10.19 -3.75,-1.24 -7.43,-2.66 -11.03,-4.25 1.03,-2.36 2.06,-4.72 3.11,-7.07 1.02,0.52 2.04,1.05 3.07,1.59 0.44,-0.77 1.32,-2.3 1.76,-3.06 -2.21,-1.17 -4.41,-2.32 -6.61,-3.46 -1.67,3.46 -3.33,6.92 -5.04,10.36 -3.53,-1.67 -7,-3.43 -10.41,-5.33 1.11,-2.1 2.23,-4.19 3.36,-6.27 1.28,0.35 2.57,0.72 3.86,1.09 0.4,-1.01 0.79,-2.01 1.19,-3.01 -2.04,-1.11 -4.09,-2.22 -6.14,-3.32 -1.98,3.19 -3.92,6.42 -5.86,9.64 -3.41,-1.96 -6.78,-3.99 -10.1,-6.08 l 4.08,-6.24 c 1.08,0.54 2.15,1.08 3.23,1.63 0.64,-1.11 1.29,-2.21 1.93,-3.31 -2.07,-1.15 -4.15,-2.29 -6.22,-3.41 -2.09,3.06 -4.17,6.14 -6.22,9.23 -3.22,-2.22 -6.37,-4.53 -9.43,-6.95 1.45,-2.02 2.91,-4.03 4.38,-6.03 1.08,0.66 2.16,1.34 3.25,2.02 0.66,-0.97 1.32,-1.94 1.98,-2.9 -1.91,-1.42 -3.82,-2.85 -5.72,-4.26 -2.37,2.91 -4.75,5.81 -7.18,8.68 -3.09,-2.47 -6.1,-5.05 -9.04,-7.69 1.67,-1.74 3.35,-3.47 5.03,-5.2 1.03,0.59 2.07,1.19 3.11,1.8 0.74,-0.88 1.47,-1.75 2.21,-2.61 -1.77,-1.51 -3.54,-3.01 -5.32,-4.51 -2.65,2.64 -5.29,5.29 -7.95,7.92 -2.82,-2.73 -5.58,-5.52 -8.27,-8.37 1.94,-1.73 3.88,-3.44 5.83,-5.15 0.79,0.85 1.58,1.7 2.37,2.57 0.82,-0.85 1.65,-1.69 2.48,-2.53 -1.58,-1.7 -3.15,-3.4 -4.72,-5.09 -2.85,2.37 -5.63,4.82 -8.35,7.34 -2.78,-2.81 -5.37,-5.81 -7.79,-8.93 1.83,-1.52 3.65,-3.03 5.48,-4.54 0.97,0.81 1.93,1.64 2.9,2.47 0.88,-0.77 1.75,-1.54 2.63,-2.3 -1.52,-1.82 -3.03,-3.64 -4.56,-5.44 -3.01,2.23 -6.02,4.47 -9.02,6.72 -2.36,-3.18 -4.65,-6.4 -6.87,-9.67 2.09,-1.41 4.17,-2.83 6.24,-4.26 0.6,0.92 1.21,1.85 1.82,2.79 1.12,-0.62 2.24,-1.24 3.36,-1.85 -1.39,-2.02 -2.78,-4.02 -4.18,-6.02 -3.09,2.09 -6.22,4.14 -9.37,6.15 -2.15,-3.34 -4.22,-6.72 -6.21,-10.16 2.26,-1.17 4.52,-2.33 6.79,-3.48 0.73,0.97 1.48,1.94 2.22,2.92 1,-0.61 2,-1.2 3,-1.79 -1.3,-2.06 -2.6,-4.12 -3.9,-6.17 -3.34,1.64 -6.66,3.32 -9.99,4.98 -1.82,-3.43 -3.57,-6.89 -5.2,-10.41 2.32,-1.06 4.65,-2.11 6.98,-3.15 0.46,1.05 0.91,2.1 1.37,3.16 1.08,-0.43 2.16,-0.86 3.25,-1.29 -0.87,-2.26 -1.74,-4.51 -2.6,-6.77 -3.58,1.47 -7.16,2.94 -10.75,4.38 -1.53,-3.63 -2.93,-7.32 -4.17,-11.06 2.33,-0.8 4.66,-1.59 6.99,-2.38 0.43,1.06 0.87,2.13 1.31,3.21 1.1,-0.41 2.2,-0.83 3.31,-1.23 -0.79,-2.29 -1.58,-4.57 -2.37,-6.85 -3.57,1.32 -7.16,2.6 -10.77,3.82 -1.16,-3.72 -2.33,-7.45 -3.51,-11.17 2.38,-0.73 4.75,-1.44 7.13,-2.16 0.45,1.11 0.9,2.21 1.35,3.33 1.18,-0.32 2.36,-0.64 3.54,-0.95 -0.64,-2.33 -1.28,-4.65 -1.92,-6.98 -3.68,0.92 -7.36,1.87 -11.02,2.87 -0.96,-3.89 -1.87,-7.78 -2.73,-11.67 2.53,-0.43 5.05,-0.85 7.58,-1.27 0.33,1.18 0.66,2.36 1,3.55 0.84,-0.19 2.53,-0.57 3.37,-0.76 l -1.2,-6.99 c -3.75,0.48 -7.5,1.02 -11.24,1.59 -0.7,-3.78 -1.27,-7.59 -1.82,-11.4 2.43,-0.42 4.86,-0.82 7.3,-1.22 0.38,1.33 0.77,2.67 1.15,4.01 1.11,-0.3 2.22,-0.58 3.33,-0.86 -0.23,-2.32 -0.48,-4.63 -0.72,-6.94 -3.74,0.24 -7.48,0.59 -11.2,1.05 -0.43,-3.98 -0.69,-7.98 -0.87,-11.97 2.47,-0.04 4.94,-0.08 7.41,-0.13 0.22,1.07 0.44,2.13 0.66,3.21 0.85,0.03 2.56,0.09 3.41,0.13 -0.01,-2.41 -0.03,-4.81 -0.05,-7.21 -3.86,0 -7.71,-0.01 -11.56,-0.02 0.04,-3.96 0.16,-7.91 0.34,-11.86 2.4,0.21 4.8,0.42 7.21,0.63 0.14,1.26 0.27,2.53 0.41,3.81 1.21,-0.09 2.43,-0.17 3.64,-0.25 0,-2.39 0,-4.78 -0.02,-7.16 -3.76,-0.25 -7.51,-0.58 -11.25,-1.01 0.45,-3.91 0.94,-7.82 1.58,-11.71 2.51,0.44 5.02,0.88 7.52,1.33 -0.09,0.92 -0.28,2.75 -0.37,3.67 l 3.63,-0.09 c 0.19,-2.33 0.38,-4.66 0.55,-7 -3.66,-0.5 -7.32,-1.02 -10.98,-1.54 0.59,-3.93 1.27,-7.85 2.02,-11.75 2.47,0.52 4.94,1.04 7.41,1.57 -0.11,0.91 -0.32,2.74 -0.43,3.65 1.2,0.19 2.4,0.37 3.61,0.56 0.44,-2.28 0.89,-4.56 1.34,-6.83 -3.71,-0.95 -7.42,-1.92 -11.11,-2.96 1.03,-3.74 2.08,-7.47 3.18,-11.19 2.3,0.71 4.6,1.42 6.89,2.14 -0.01,1.28 -0.03,2.57 -0.04,3.86 0.71,0.28 2.11,0.86 2.81,1.14 0.73,-2.48 1.46,-4.96 2.17,-7.45 -3.61,-1.12 -7.2,-2.28 -10.79,-3.47 1.31,-3.73 2.65,-7.45 4.07,-11.13 2.37,0.95 4.74,1.9 7.12,2.85 -0.49,1.18 -0.97,2.36 -1.46,3.55 1.37,0.28 2.74,0.56 4.12,0.85 0.63,-2.09 1.28,-4.17 1.93,-6.26 -3.35,-1.71 -6.75,-3.32 -10.21,-4.8 1.51,-3.51 3.06,-7 4.64,-10.48 2.06,0.97 6.61,3.51 6.61,3.51 l -1.135,2.79 3.215,1.64 c 0,0 2.14,-3.87 3.31,-6.37 -3.39,-1.78 -6.78,-3.55 -10.16,-5.32 1.91,-3.48 3.87,-6.92 5.91,-10.32 l 6.56001,3.98 -1.82001,3.15 c 0,0 2.17,1.49 2.69,1.92 1.35,-2.1 2.68,-4.21 4,-6.33 -3.19,-2 -6.38,-4.02 -9.52,-6.1 2.1,-3.2 4.21,-6.4 6.34,-9.58 2.09,1.36 4.17,2.73 6.25,4.11 -0.55,1.16 -1.1,2.33 -1.64,3.5 0.97,0.56 1.94,1.13 2.92,1.7 1.36,-1.93 2.73,-3.85 4.1,-5.77 -3.09,-2.31 -6.14,-4.64 -9.15,-7.03 2.41,-3.09 4.87,-6.16 7.36,-9.2 1.83,1.62 3.67,3.23 5.51,4.85 l -1.77,3.39 c 0.98,0.59 1.96,1.19 2.94,1.78 1.41,-1.86 2.82,-3.72 4.24,-5.59 -2.85,-2.42 -5.67,-4.89 -8.44,-7.4 2.58,-2.96 5.28,-5.82 8.13,-8.53 1.78,1.76 3.55,3.52 5.33,5.28 -0.8,0.81 -1.59,1.61 -2.37,2.42 0.87,1.01 1.75,2.02 2.62,3.03 1.59,-1.77 3.18,-3.53 4.79,-5.29 -2.34,-2.91 -4.84,-5.68 -7.55,-8.25 2.68,-2.83 5.51,-5.51 8.47,-8.05 1.66,1.83 3.33,3.66 4.99,5.49 l -2.46,2.88 c 0.83,0.82 1.65,1.65 2.48,2.48 1.73,-1.53 3.45,-3.06 5.18,-4.6 -2.38,-2.99 -4.79,-5.96 -7.21,-8.92 3.05,-2.39 6.1,-4.78 9.17,-7.15 1.62,2 3.22,4 4.83,6.01 -0.99,0.77 -1.98,1.55 -2.96,2.34 0.7,0.97 1.4,1.93 2.1,2.91 1.98,-1.39 3.97,-2.78 5.96,-4.17 -2.14,-3.09 -4.31,-6.16 -6.49,-9.21 3.13,-2.41 6.38,-4.67 9.68,-6.84 1.37,2.28 2.72,4.57 4.05,6.89 -1.12,0.64 -2.23,1.28 -3.34,1.93 l 2.4,2.58 c 1.96,-1.1 3.93,-2.21 5.89,-3.32 -1.73,-3.37 -3.55,-6.69 -5.4,-10 3.25,-1.96 6.5,-3.9 9.74,-5.86 1.29,2.2 2.55,4.42 3.82,6.65 -0.99,0.8 -1.97,1.61 -2.95,2.42 0.54,0.96 1.08,1.92 1.62,2.89 2.08,-1.05 4.17,-2.1 6.25,-3.15 -1.51,-3.55 -3.06,-7.08 -4.56,-10.64 3.47,-1.58 6.97,-3.12 10.48,-4.64 1.03,2.38 2.04,4.76 3.05,7.15 -1.11,0.44 -2.21,0.87 -3.31,1.31 0.4,1.07 0.82,2.13 1.23,3.2 2.27,-0.78 4.55,-1.56 6.82,-2.34 -1.36,-3.63 -2.74,-7.25 -4.11,-10.86 3.74,-1.37 7.49,-2.69 11.25,-4.01 0.73,2.58 1.44,5.15 2.15,7.73 -0.83,0.15 -2.49,0.44 -3.32,0.58 0.38,1.22 0.75,2.43 1.13,3.65 2.28,-0.68 4.55,-1.37 6.83,-2.06 -1.01,-3.66 -2.04,-7.31 -3.07,-10.96 3.72,-1.06 7.45,-2.08 11.19,-3.08 0.68,2.37 1.35,4.75 2.03,7.13 -1.06,0.37 -2.12,0.75 -3.18,1.13 l 0.24,3.81 c 2.38,-0.62 4.75,-1.24 7.12,-1.87 -0.71,-3.7 -1.45,-7.4 -2.21,-11.1 3.89,-0.75 7.79,-1.42 11.71,-1.98 0.32,2.49 0.64,4.99 0.96,7.48 -1.21,0.28 -2.41,0.57 -3.6,0.86 0.24,1.12 0.48,2.25 0.73,3.39 2.36,-0.32 4.71,-0.64 7.07,-0.95 -0.39,-3.85 -0.8,-7.69 -1.12,-11.54 m 2.21,1.85 c 0.31,3.67 0.68,7.34 1.09,11.01 -3.69,0.63 -7.39,1.2 -11.1,1.75 -0.25,-2.42 -0.53,-4.84 -0.81,-7.25 1.17,-0.34 2.34,-0.67 3.52,-1 -0.31,-1.12 -0.6,-2.23 -0.89,-3.34 -2.46,0.46 -4.92,0.94 -7.36,1.45 0.72,3.59 1.46,7.19 2.19,10.78 -3.57,0.82 -7.13,1.68 -10.68,2.56 -0.65,-2.32 -1.29,-4.64 -1.92,-6.95 1.27,-0.56 2.55,-1.11 3.83,-1.67 -0.39,-1.08 -0.76,-2.17 -1.14,-3.25 -2.55,0.75 -5.09,1.51 -7.63,2.29 1.12,3.48 2.16,6.99 3.15,10.51 -3.46,1.14 -6.93,2.25 -10.39,3.35 -0.76,-2.36 -1.51,-4.72 -2.25,-7.08 1.15,-0.4 2.29,-0.8 3.44,-1.2 -0.43,-1.06 -0.86,-2.11 -1.29,-3.17 -2.48,0.71 -4.95,1.42 -7.43,2.13 1.41,3.53 2.7,7.1 3.86,10.72 -3.25,1.35 -6.48,2.74 -9.69,4.18 -1.12,-2.26 -2.23,-4.52 -3.33,-6.79 1.26,-0.56 2.52,-1.13 3.78,-1.7 -0.68,-0.95 -1.35,-1.91 -2.02,-2.86 -2.28,0.84 -4.55,1.69 -6.83,2.53 1.65,3.43 3.21,6.89 4.73,10.37 -3.24,1.62 -6.42,3.32 -9.57,5.1 -1.09,-2.04 -2.21,-4.06 -3.38,-6.05 1.06,-1.23 2.76,-2.47 2.76,-2.47 l -2.1,-3.12 -6.05,3.18 c 0,0 3.55,6.92 5.37,10.37 -3.21,1.82 -6.41,3.69 -9.61,5.54 -1.18,-2.04 -2.36,-4.06 -3.54,-6.09 1.03,-0.7 2.06,-1.4 3.1,-2.1 l -2.1,-3.03 c -2.12,1.33 -4.23,2.68 -6.33,4.05 2.04,3.16 4.05,6.34 5.89,9.63 -2.86,1.97 -5.7,3.97 -8.52,5.99 -1.51,-1.77 -3.01,-3.55 -4.51,-5.33 0.91,-0.84 1.82,-1.67 2.73,-2.5 -0.68,-0.97 -1.36,-1.93 -2.04,-2.89 -2.05,1.45 -4.09,2.91 -6.13,4.38 2.32,2.94 4.67,5.86 7.04,8.75 -2.85,2.43 -5.7,4.86 -8.57,7.26 -1.53,-1.73 -3.06,-3.45 -4.59,-5.17 0.8,-0.99 1.6,-1.98 2.4,-2.96 -0.76,-0.8 -1.52,-1.6 -2.28,-2.39 -1.92,1.58 -3.84,3.17 -5.77,4.75 2.53,2.75 5.12,5.44 7.78,8.06 -2.58,2.69 -5.18,5.36 -7.81,8 -1.72,-1.54 -3.43,-3.08 -5.14,-4.62 0.7,-0.94 1.41,-1.87 2.12,-2.8 -0.79,-0.99 -1.58,-1.98 -2.36,-2.97 -1.71,1.93 -3.42,3.86 -5.1,5.81 2.64,2.45 5.28,4.88 7.92,7.34 -2.3,2.96 -4.67,5.86 -7.07,8.73 -1.81,-1.6 -3.63,-3.2 -5.45,-4.79 0.68,-1.01 1.36,-2.03 2.05,-3.04 -0.97,-0.73 -1.94,-1.46 -2.91,-2.18 -1.48,2.01 -2.96,4.03 -4.43,6.05 2.84,2.17 5.69,4.33 8.56,6.46 -1.98,3.07 -4.06,6.07 -6.2,9.02 -2.03,-1.22 -4.05,-2.44 -6.07,-3.67 0.64,-1.19 1.27,-2.38 1.91,-3.57 -1.02,-0.57 -2.04,-1.13 -3.06,-1.7 -1.35,2.07 -2.69,4.15 -4.02,6.23 3.12,2.02 6.22,4.05 9.31,6.11 -1.95,3.1 -3.89,6.21 -5.87,9.29 -2.05,-1.12 -4.11,-2.24 -6.17,-3.35 0.58,-1.17 1.16,-2.33 1.75,-3.5 -1.04,-0.56 -2.08,-1.11 -3.11,-1.67 -1.31,2.13 -2.61,4.26 -3.91,6.4 3.29,1.83 6.55,3.7 9.76,5.69 -1.59,3.16 -3.16,6.33 -4.71,9.51 -2.28,-0.99 -4.56,-1.99 -6.83,-3 0.48,-1.07 0.96,-2.13 1.45,-3.19 -0.97,-0.68 -1.94,-1.35 -2.9,-2.02 -1.18,2.36 -2.35,4.74 -3.52,7.11 3.41,1.56 6.83,3.11 10.22,4.72 -1.27,3.36 -2.51,6.73 -3.7,10.11 -2.37,-0.81 -4.73,-1.63 -7.09,-2.46 0.26,-0.94 0.79,-2.82 1.06,-3.76 -1.2,-0.3 -2.4,-0.6 -3.59,-0.89 -0.71,2.34 -1.41,4.68 -2.1,7.04 3.4,1.15 6.81,2.3 10.22,3.44 -0.97,3.6 -2.01,7.19 -3.08,10.77 -2.35,-0.7 -4.69,-1.4 -7.03,-2.1 0.29,-1.2 0.59,-2.4 0.88,-3.59 -1.12,-0.44 -2.24,-0.89 -3.36,-1.32 -0.8,2.56 -1.58,5.13 -2.36,7.71 3.62,0.89 7.24,1.76 10.87,2.62 -0.66,3.57 -1.38,7.13 -2.09,10.7 l -6.96,-0.99 0.03,-4.02 c -0.84,-0.13 -2.51,-0.41 -3.35,-0.55 -0.49,2.47 -0.98,4.93 -1.47,7.4 3.67,0.67 7.33,1.35 10.99,2.08 -0.47,3.6 -0.92,7.21 -1.36,10.82 -2.49,-0.28 -4.99,-0.56 -7.48,-0.85 0.21,-1.22 0.41,-2.43 0.62,-3.64 -1.29,-0.08 -2.59,-0.15 -3.88,-0.22 -0.27,2.46 -0.53,4.92 -0.8,7.39 3.77,0.32 7.54,0.63 11.32,0.91 -0.3,3.68 -0.5,7.38 -0.69,11.07 -2.39,-0.15 -4.78,-0.29 -7.16,-0.44 -0.17,-1.2 -0.33,-2.4 -0.49,-3.59 -1.14,0.06 -2.28,0.13 -3.42,0.21 -0.03,2.46 -0.05,4.92 -0.05,7.38 3.76,-0.03 7.53,-0.02 11.29,-0.01 -0.01,3.7 -0.02,7.41 -0.08,11.11 -2.44,0.14 -4.88,0.28 -7.31,0.42 0.05,-0.87 0.16,-2.59 0.22,-3.45 -1.29,-0.06 -2.59,-0.11 -3.88,-0.16 0.02,2.46 0.05,4.91 0.07,7.37 3.85,-0.06 7.71,-0.18 11.57,-0.26 0.32,3.56 0.7,7.12 1.09,10.68 -2.48,0.37 -4.95,0.76 -7.43,1.16 -0.15,-1.28 -0.3,-2.56 -0.46,-3.83 -1.2,0.14 -2.4,0.28 -3.59,0.43 0.27,2.48 0.54,4.95 0.82,7.43 3.8,-0.49 7.59,-1.02 11.39,-1.54 0.52,3.56 1.11,7.12 1.7,10.67 -2.28,0.6 -4.57,1.2 -6.86,1.8 -0.45,-1.26 -0.9,-2.52 -1.35,-3.76 -1.08,0.29 -2.17,0.59 -3.25,0.9 0.47,2.42 0.95,4.83 1.44,7.26 3.66,-0.76 7.3,-1.56 10.95,-2.37 1.05,3.45 2.09,6.91 3.14,10.36 -2.37,0.74 -4.74,1.47 -7.11,2.2 -0.45,-1.13 -0.89,-2.25 -1.33,-3.37 -1.17,0.32 -2.34,0.65 -3.51,0.99 0.71,2.33 1.43,4.67 2.14,7.01 3.62,-0.98 7.21,-2.06 10.78,-3.19 1.31,3.39 2.59,6.78 3.86,10.18 l -6.93,3 c -0.38,-1.07 -0.77,-2.13 -1.15,-3.19 -1.27,0.21 -2.53,0.42 -3.8,0.64 0.94,2.45 1.89,4.9 2.84,7.36 3.53,-1.47 7.08,-2.86 10.69,-4.13 1.41,3.31 2.84,6.61 4.25,9.93 -2.09,1.08 -4.17,2.17 -6.25,3.27 -0.66,-1.05 -1.31,-2.1 -1.96,-3.15 -1.08,0.64 -2.16,1.28 -3.23,1.93 1.05,2.04 2.1,4.09 3.14,6.14 3.4,-1.65 6.79,-3.31 10.19,-4.96 1.8,3.2 3.56,6.44 5.23,9.71 -2.06,1.17 -4.11,2.35 -6.16,3.54 -0.71,-1.05 -1.41,-2.09 -2.12,-3.12 -1.03,0.68 -2.06,1.37 -3.08,2.07 1.32,2.1 2.67,4.2 4.03,6.29 3.09,-1.96 6.19,-3.9 9.3,-5.81 2.11,3.01 4.17,6.05 6.17,9.14 -1.99,1.42 -3.99,2.85 -5.98,4.28 -0.77,-1.01 -1.55,-2.02 -2.32,-3.01 -0.96,0.69 -1.93,1.4 -2.89,2.11 l 4.2,6.03 c 3.15,-2.15 6.29,-4.32 9.48,-6.4 2.17,2.79 4.36,5.58 6.56,8.36 -1.78,1.6 -3.56,3.21 -5.33,4.81 -0.95,-0.76 -1.89,-1.51 -2.84,-2.25 -1.01,0.52 -2.02,1.05 -3.02,1.59 1.72,2.01 3.44,4.01 5.17,6.02 2.84,-2.36 5.61,-4.8 8.31,-7.31 2.62,2.61 5.17,5.29 7.67,8.02 -1.69,1.7 -3.39,3.4 -5.08,5.1 -1.02,-0.78 -2.04,-1.56 -3.05,-2.33 -0.78,0.8 -1.55,1.61 -2.32,2.42 1.73,1.77 3.46,3.55 5.2,5.32 2.67,-2.63 5.33,-5.27 8,-7.88 2.74,2.44 5.47,4.9 8.18,7.38 -1.67,1.83 -3.34,3.66 -5.02,5.48 -1,-0.79 -1.99,-1.57 -2.97,-2.34 -0.69,0.94 -1.37,1.88 -2.04,2.83 1.77,1.66 3.54,3.33 5.31,5 2.53,-2.86 5.04,-5.74 7.6,-8.57 2.89,2.18 5.74,4.4 8.57,6.67 -1.44,1.86 -2.89,3.72 -4.35,5.57 -1.08,-0.55 -2.16,-1.09 -3.23,-1.63 -0.68,0.98 -1.35,1.96 -2.02,2.95 2.04,1.44 4.09,2.87 6.15,4.31 2.24,-3.02 4.4,-6.1 6.52,-9.19 3.08,2.03 6.17,4.03 9.28,6.02 -1.29,2.05 -2.57,4.11 -3.85,6.17 -1.12,-0.52 -2.24,-1.03 -3.35,-1.54 -0.61,1.02 -1.22,2.04 -1.83,3.07 2.08,1.25 4.16,2.5 6.24,3.76 2.02,-3.17 3.98,-6.38 5.92,-9.59 3.25,1.73 6.51,3.47 9.77,5.2 -1.2,2.28 -2.39,4.58 -3.58,6.87 -1.03,-0.69 -2.06,-1.37 -3.08,-2.04 -0.59,1.08 -1.18,2.17 -1.77,3.26 2.19,1.27 4.37,2.53 6.56,3.8 1.69,-3.43 3.38,-6.86 5.09,-10.27 3.33,1.41 6.65,2.86 9.96,4.33 -0.79,2.24 -1.58,4.49 -2.36,6.74 -1.21,-0.33 -2.42,-0.65 -3.63,-0.96 -0.56,1.08 -1.12,2.17 -1.67,3.26 2.38,0.94 4.77,1.87 7.16,2.79 1.32,-3.52 2.72,-7.01 4.23,-10.45 3.37,1.19 6.73,2.39 10.1,3.58 -0.7,2.29 -1.39,4.57 -2.08,6.87 -1.27,-0.24 -2.54,-0.46 -3.81,-0.68 -0.3,1.16 -0.6,2.34 -0.9,3.52 2.38,0.76 4.76,1.53 7.13,2.31 1.1,-3.65 2.16,-7.3 3.16,-10.96 3.6,0.9 7.19,1.84 10.78,2.79 -0.51,2.34 -1.02,4.68 -1.52,7.03 -1.23,-0.27 -2.47,-0.53 -3.7,-0.78 -0.31,1.23 -0.61,2.48 -0.91,3.73 2.47,0.64 4.94,1.26 7.42,1.87 0.71,-3.76 1.48,-7.5 2.35,-11.23 3.66,0.67 7.31,1.37 10.95,2.18 -0.47,2.2 -0.97109,7.06962 -0.97109,7.06962 l -3.89104,-0.35208 c 0.005,3.3e-4 -0.49787,2.64246 -0.83787,3.60246 2.6,0.36 5.2,0.71 7.81,1.05 0.42,-3.7 0.85,-7.41 1.29,-11.1 3.64,0.27 7.28,0.61 10.91,1 -0.15,2.52 -0.31,5.04 -0.48,7.57 -0.93,-0.12 -2.78,-0.37 -3.71,-0.49 -0.02,1.34 -0.04,2.69 -0.05,4.04 l 7.44,0.12 c 0.22,-3.71 0.43,-7.41 0.68,-11.11 3.57,-0.09 7.13,-0.17 10.7,-0.27 0.09,2.53 0.17,5.06 0.27,7.59 -1.27,0.25 -2.54,0.5 -3.8,0.75 0.06,1.21 0.13,2.42 0.2,3.64 2.54,-0.22 5.08,-0.43 7.63,-0.65 -0.16,-3.72 -0.31,-7.44 -0.35,-11.16 3.65,-0.19 7.29,-0.44 10.93,-0.71 0.21,2.55 0.41,5.11 0.6,7.68 -1.33,0.02 -2.67,0.05 -4,0.09 0.33,1.32 0.67,2.66 1.01,4 2.36,-0.37 4.72,-0.72 7.09,-1.06 -0.26,-3.68 -0.59,-7.35 -1.07,-11.01 3.62,-0.62 7.25,-1.21 10.87,-1.81 0.38,2.51 0.76,5.02 1.13,7.54 -1.21,0.32 -2.42,0.64 -3.63,0.97 0.19,0.84 0.56,2.51 0.75,3.35 2.51,-0.44 5.03,-0.88 7.55,-1.31 -0.72,-3.66 -1.46,-7.32 -2.19,-10.98 3.56,-0.99 7.13,-1.93 10.7,-2.85 0.52,2.49 1.04,4.99 1.57,7.5 -0.72,0.25 -2.14,0.76 -2.85,1.01 0.08,1.19 0.17,2.38 0.26,3.58 2.53,-0.64 5.05,-1.28 7.58,-1.93 -1,-3.65 -2,-7.29 -2.94,-10.93 3.42,-1.15 6.84,-2.28 10.28,-3.4 0.88,2.35 1.74,4.72 2.6,7.09 -1.27,0.53 -2.53,1.07 -3.79,1.61 0.32,0.75 0.98,2.26 1.3,3.02 2.41,-0.76 4.81,-1.52 7.22,-2.3 -1.24,-3.6 -2.47,-7.2 -3.63,-10.82 3.24,-1.36 6.47,-2.75 9.68,-4.19 1.16,2.23 2.31,4.47 3.45,6.72 -1.07,0.7 -2.14,1.4 -3.2,2.12 0.39,1.03 0.8,2.07 1.21,3.12 2.3,-1.06 4.61,-2.12 6.92,-3.17 -1.56,-3.38 -3.13,-6.76 -4.66,-10.14 3.17,-1.77 6.39,-3.45 9.63,-5.07 1.17,2.05 2.33,4.11 3.5,6.18 -0.98,0.97 -1.96,1.94 -2.93,2.92 0.45,0.63 1.34,1.9 1.79,2.54 2.2,-1.29 4.4,-2.58 6.6,-3.88 -1.97,-3.17 -3.9,-6.35 -5.83,-9.53 3.2,-2 6.41,-3.97 9.65,-5.91 1.26,1.98 2.54,3.96 3.82,5.94 -0.94,0.79 -1.87,1.59 -2.8,2.39 0.69,1.02 1.39,2.06 2.1,3.09 2.03,-1.38 4.07,-2.75 6.11,-4.14 -2.13,-3.1 -4.23,-6.22 -6.28,-9.38 2.96,-2.21 5.97,-4.35 9.04,-6.38 1.45,1.99 2.9,4 4.35,6 -0.88,0.79 -1.76,1.59 -2.63,2.39 0.62,0.99 1.24,1.98 1.87,2.98 l 6,-5.01 c -2.28,-2.9 -4.64,-5.74 -7.08,-8.5 2.79,-2.57 5.63,-5.08 8.52,-7.54 1.7,1.94 3.4,3.88 5.11,5.83 -0.95,0.76 -1.89,1.54 -2.82,2.31 0.77,0.98 1.54,1.96 2.32,2.94 1.92,-1.82 3.82,-3.66 5.72,-5.5 -2.63,-2.63 -5.24,-5.26 -7.88,-7.87 2.6,-2.68 5.23,-5.33 7.88,-7.96 1.82,1.73 3.62,3.46 5.43,5.2 -0.84,0.8 -1.67,1.6 -2.5,2.4 0.79,0.95 1.58,1.9 2.37,2.86 1.87,-1.89 3.73,-3.78 5.58,-5.68 -2.85,-2.47 -5.66,-4.97 -8.43,-7.5 2.31,-2.88 4.71,-5.68 7.2,-8.4 1.82,1.46 3.65,2.92 5.48,4.39 -0.6,1.05 -1.19,2.11 -1.77,3.18 0.88,0.73 1.77,1.47 2.67,2.21 1.57,-2 3.15,-4 4.73,-6 -3.03,-2.18 -6.03,-4.39 -9.03,-6.61 2,-3.05 4.08,-6.05 6.21,-9.01 2.01,1.16 4.02,2.32 6.04,3.48 -0.44,1.33 -0.87,2.66 -1.29,4 0.97,0.56 1.96,1.12 2.95,1.69 1.24,-2.05 2.49,-4.1 3.74,-6.15 -3.04,-2.12 -6.14,-4.15 -9.3,-6.1 1.74,-3.17 3.52,-6.33 5.28,-9.49 2.2,1.02 4.4,2.04 6.61,3.07 -0.45,1.03 -0.9,2.07 -1.35,3.11 0.89,0.93 1.79,1.86 2.7,2.8 1.32,-2.29 2.62,-4.59 3.9,-6.9 -3.32,-1.86 -6.62,-3.77 -9.82,-5.83 1.6,-3.14 3.19,-6.28 4.77,-9.43 2.25,0.97 4.51,1.94 6.76,2.93 -0.33,1.3 -0.65,2.61 -0.97,3.92 0.99,0.38 1.98,0.77 2.98,1.17 1.02,-2.31 2.04,-4.62 3.06,-6.92 -3.4,-1.49 -6.82,-2.95 -10.24,-4.39 1.21,-3.43 2.53,-6.83 3.94,-10.19 2.3,0.7 4.6,1.41 6.91,2.11 -0.26,1.14 -0.52,2.28 -0.77,3.43 1.05,0.68 2.1,1.37 3.16,2.07 0.79,-2.6 1.57,-5.2 2.32,-7.81 -3.47,-1.13 -6.93,-2.25 -10.4,-3.37 1,-3.57 2.02,-7.12 3.05,-10.67 2.35,0.63 4.71,1.26 7.07,1.9 -0.3,1.16 -0.6,2.32 -0.9,3.49 1.23,0.42 2.45,0.84 3.68,1.26 0.72,-2.5 1.42,-5 2.11,-7.51 -3.66,-0.85 -7.31,-1.72 -10.96,-2.57 0.7,-3.58 1.43,-7.15 2.15,-10.73 l 7.59,1.2 c -0.2,1.2 -0.39,2.4 -0.57,3.61 1.18,0.33 2.38,0.66 3.57,1 0.41,-2.55 0.82,-5.09 1.24,-7.63 -3.74,-0.62 -7.47,-1.28 -11.19,-2.03 0.5,-3.48 0.96,-6.97 1.37,-10.46 2.6,0.11 5.21,0.26 7.82,0.42 -0.29,1.27 -0.58,2.55 -0.86,3.84 1.34,0.02 2.68,0.05 4.03,0.09 0.25,-2.4 0.5,-4.8 0.76,-7.2 -3.68,-0.41 -7.38,-0.74 -11.07,-1.02 0.05,-3.64 0.11,-7.29 0.18,-10.93 2.59,0.04 5.18,0.09 7.78,0.15 -0.04,1.29 -0.08,2.58 -0.11,3.88 0.9,-0.03 2.68,-0.09 3.57,-0.12 0.17,-2.53 0.33,-5.06 0.51,-7.58 -3.92,-0.17 -7.84,-0.26 -11.76,-0.34 -0.02,-3.66 -0.03,-7.32 -0.03,-10.98 2.61,0.03 5.22,0.07 7.84,0.13 -0.02,0.78 -0.07,2.33 -0.09,3.11 0.9,0.01 2.7,0.03 3.6,0.03 -0.14,-2.44 -0.28,-4.89 -0.4,-7.33 -3.75,0.12 -7.5,0.29 -11.24,0.53 -0.45,-3.69 -0.89,-7.37 -1.36,-11.05 2.55,-0.23 5.1,-0.46 7.66,-0.69 0.03,0.81 0.1,2.45 0.14,3.27 1.32,-0.03 2.64,-0.06 3.97,-0.08 -0.35,-2.6 -0.71,-5.2 -1.08,-7.79 -3.71,0.62 -7.42,1.23 -11.12,1.88 -0.7,-3.64 -1.38,-7.28 -2.06,-10.92 2.36,-0.49 4.73,-0.97 7.11,-1.44 0.38,1.09 0.78,2.19 1.17,3.3 1.2,-0.12 2.41,-0.24 3.62,-0.35 -0.6,-2.52 -1.2,-5.03 -1.8,-7.54 -3.65,0.78 -7.3,1.58 -10.94,2.35 -1.03,-3.44 -2.03,-6.9 -3.04,-10.34 2.34,-0.81 4.69,-1.61 7.04,-2.41 0.44,1.13 0.88,2.27 1.33,3.41 1.21,-0.29 2.42,-0.58 3.64,-0.86 -0.75,-2.39 -1.5,-4.77 -2.24,-7.16 -3.61,1.36 -7.36,2.27 -11.15,2.94 -1.16,-3.26 -2.32,-6.51 -3.43,-9.78 2.24,-0.99 4.48,-1.98 6.71,-2.98 0.6,1.09 1.21,2.19 1.82,3.29 0.84,-0.21 2.52,-0.63 3.36,-0.83 -0.99,-2.39 -1.98,-4.76 -2.99,-7.13 -3.42,1.33 -6.83,2.7 -10.23,4.06 -1.66,-3.31 -3.23,-6.66 -4.74,-10.03 2,-0.96 4.01,-1.93 6.01,-2.9 0.97,0.92 1.95,1.85 2.93,2.78 0.99,-0.51 1.99,-1.02 3,-1.52 -1.29,-2.15 -2.57,-4.29 -3.86,-6.42 -3.27,1.64 -6.55,3.26 -9.87,4.81 -1.75,-3.13 -3.52,-6.25 -5.3,-9.36 2.23,-1.34 4.46,-2.67 6.7,-3.99 0.51,1.09 1.02,2.18 1.55,3.27 1.07,-0.71 2.15,-1.43 3.24,-2.14 -1.26,-2.08 -2.51,-4.16 -3.77,-6.23 -3.23,1.92 -6.43,3.91 -9.59,5.96 -2.04,-3.07 -4.1,-6.11 -6.18,-9.14 1.96,-1.42 3.92,-2.84 5.89,-4.26 0.8,0.92 1.61,1.84 2.42,2.77 0.94,-0.72 1.89,-1.43 2.84,-2.14 -1.41,-2.02 -2.82,-4.05 -4.23,-6.07 -3.02,2.19 -6.03,4.39 -9.04,6.58 -2.38,-2.81 -4.69,-5.66 -6.98,-8.54 1.94,-1.62 3.89,-3.24 5.83,-4.86 0.82,0.97 1.65,1.93 2.48,2.9 0.91,-0.89 1.82,-1.77 2.74,-2.65 -1.68,-1.78 -3.35,-3.57 -5.01,-5.36 -2.84,2.43 -5.7,4.83 -8.6,7.18 -2.43,-2.68 -4.85,-5.36 -7.27,-8.04 1.69,-1.7 3.39,-3.41 5.09,-5.12 0.92,0.8 1.85,1.61 2.79,2.42 0.85,-0.87 1.71,-1.73 2.58,-2.59 -1.8,-1.7 -3.59,-3.41 -5.39,-5.1 -2.59,2.62 -5.19,5.23 -7.85,7.78 -2.72,-2.43 -5.43,-4.88 -8.13,-7.33 1.61,-1.8 3.22,-3.6 4.84,-5.39 1.02,0.71 2.03,1.43 3.06,2.15 0.7,-0.94 1.41,-1.88 2.13,-2.82 -1.92,-1.65 -3.83,-3.3 -5.74,-4.94 -2.16,2.93 -4.46,5.75 -6.8,8.54 -3.15,-1.98 -6.17,-4.15 -8.94,-6.63 1.46,-2.02 2.92,-4.03 4.39,-6.05 0.98,0.68 1.98,1.37 2.98,2.06 0.69,-0.99 1.38,-1.97 2.07,-2.95 -2.01,-1.4 -4.03,-2.8 -6.04,-4.2 -2.13,3.02 -4.23,6.05 -6.31,9.1 -3.13,-1.95 -6.23,-3.95 -9.29,-6 1.23,-2.09 2.47,-4.17 3.71,-6.25 1.1,0.69 2.21,1.39 3.32,2.09 0.53,-1.22 1.07,-2.44 1.61,-3.66 -2.04,-1.2 -4.07,-2.39 -6.11,-3.57 -1.99,3.16 -3.96,6.34 -5.92,9.51 -3.16,-1.73 -6.31,-3.47 -9.45,-5.24 1.07,-2.09 2.15,-4.19 3.24,-6.27 l 3.84,1.14 c 0.38,-0.98 0.77,-1.97 1.16,-2.95 -2.22,-1.23 -4.43,-2.46 -6.64,-3.69 -1.66,3.4 -3.35,6.77 -5.1,10.12 -3.36,-1.43 -6.7,-2.87 -10.04,-4.33 0.94,-2.27 1.89,-4.54 2.84,-6.8 1.28,0.28 2.56,0.57 3.85,0.86 0.37,-1.02 0.74,-2.04 1.12,-3.05 -2.34,-0.87 -4.67,-1.74 -7,-2.61 -1.48,3.47 -2.91,6.96 -4.36,10.45 -3.41,-1.36 -6.86,-2.65 -10.32,-3.89 0.73,-2.25 1.44,-4.51 2.16,-6.76 1.16,0.26 2.32,0.53 3.49,0.8 0.46,-1.04 0.93,-2.07 1.4,-3.1 -2.3,-0.97 -4.6,-1.94 -6.89,-2.92 -1.29,3.63 -2.46,7.3 -3.6,10.99 -3.54,-0.89 -7.08,-1.75 -10.62,-2.57 0.57,-2.47 1.16,-4.93 1.77,-7.39 1.22,0.26 2.46,0.51 3.69,0.78 0.13,-1.25 0.25,-2.49 0.39,-3.73 -2.34,-0.46 -4.68,-0.91 -7.01,-1.35 -0.87,3.6 -1.73,7.2 -2.67,10.78 -3.47,-0.59 -6.93,-1.17 -10.4,-1.75 0.29,-2.52 0.6,-5.04 0.92,-7.55 1.22,0.19 2.43,0.38 3.66,0.58 0.13,-1.24 0.27,-2.48 0.41,-3.71 -2.51,-0.32 -5.01,-0.64 -7.51,-0.95 -0.4,3.65 -0.83,7.31 -1.3,10.96 -3.67,-0.28 -7.35,-0.58 -11.01,-0.97 0.16,-2.43 0.33,-4.86 0.48,-7.29 0.9,0 2.7,0.01 3.6,0.01 0.21,-1.25 0.43,-2.5 0.65,-3.74 -2.62,-0.05 -5.24,-0.09 -7.85,-0.14 -0.22,3.72 -0.4,7.44 -0.6,11.16 -3.61,-0.04 -7.22,-0.04 -10.82,0 -0.08,-2.54 -0.14,-5.08 -0.2,-7.62 1.17,-0.08 2.35,-0.16 3.53,-0.23 0.04,-0.88 0.12,-2.63 0.16,-3.51 -2.52,0 -5.04,-0.01 -7.55,-0.01 0,3.71 0.09,7.41 0.22,11.12 -3.68,0.32 -7.37,0.58 -11.06,0.71 -0.18,-2.41 -0.35,-4.83 -0.52,-7.24 1.23,-0.18 2.45,-0.36 3.68,-0.53 -0.12,-1.18 -0.25,-2.35 -0.37,-3.52 -2.47,0.26 -4.95,0.52 -7.42,0.8 z"
       id="path21"
       inkscape:connector-curvature="0"
       style="opacity:1;fill:#deb857"
       sodipodi:nodetypes="cccccccccccccccccccccccccccccccccccccccccccccccccccccccccccccccccccccccccccccccccccccccccccccccccccccccccccccccccccccccccccccccccccccccccccccccccccccccccccccccccccccccccccccccccccccccccccccccccccccccccccccccccccccccccccccccccccccccccccccccccccccccccccccccccccccccccccccccccccccccccccccccccccccccccccccccccccccccccccccccccccccccccccccccccccccccccccccccccccccccccccccccccccccccccccccccccccccccccccccccccccccccccccccccccccccccccccccccccccccccccccccccccccccccccccccccccccccccccccccccccccccccccccccccccccccccccccccccccccccccccccccccccccccccccccccccccccccccccccccccccccccccccccccccccccccccccccccccccccccccccccccccccccccccccccccccccccccccccccccccccccccccccccccccccccccccccccccccccccccccccccccccccccccccccccccccccccccccccccccccccccccccccccccccccccccccccccccccccccccccccccccccccccccccccccccccccccccccccccccccccccccccccccccccccccccccccccccccccccccccccccccccccccccccccccccccccccccccccccccccccccccccccccccccccccccccccccccccccccccccccccccccccccccccccc" />
    <path
       style="opacity:1;fill:#deb857"
       inkscape:connector-curvature="0"
       d="m 308.44,210.53 c 63.55,-5.55 128.5,26.39 162.92,80.08 23.31,35.41 33.36,79.31 27.54,121.32 -7.76,61.48 -50.16,116.94 -107.46,140.52 -60.84,26.49 -135.85,14.6 -185.59,-29.28 -54.4,-45.72 -76.18,-125.59 -52.25,-192.56 21.69,-66.14 85.38,-115.53 154.84,-120.08 m 1.98,1.89 c -35.98,2.38 -71.15,16.08 -99.09,38.9 -50.94,40.36 -75.67,110.36 -61.42,173.78 13.33,66.06 67.97,121.16 133.89,135.13 67.14,15.83 141.81,-12.56 181.44,-69.01 41.34,-55.94 44.25,-136.68 7.01,-195.44 -33.07,-54.89 -97.93,-88.3 -161.83,-83.36 z"
       id="path23" />
  </g>
  <g
     id="#48484aff"
     transform="matrix(0.50204848,0,0,0.50204848,94.711255,80.33476)"
     style="fill:#ffffff;fill-opacity:1">
    <path
       d="m 224,0 0,540 C 200.58496,527.06576 177.25614,513.2451 154,499.79 L 154,305 70,305 69.92,450.64872 0,410.74 0,129.28 m 70.03,43.73 c 0,0 -0.01,40.66 -0.03,60.99 l 83,0 c 0,-36.37 -0.01,-109.1 -0.01,-109.1 z"
       id="path5-8"
       inkscape:connector-curvature="0"
       style="opacity:1;fill:#ffffff;fill-opacity:1"
       sodipodi:nodetypes="ccccccccccccc" />
  </g>
  <g
     id="#c71f2cff"
     transform="matrix(0.50204848,0,0,0.50204848,94.711255,80.33476)"
     style="fill:#ffffff;fill-opacity:1">
    <path
       d="m 256,0 c 0,0 47.4249,27.424325 70.99,41.22 L 327,185.33 418.53,93.94 483,131.3 344.81,269.51 483,408.83 419.63,445.12 c 0,0 -62.26,-62.47 -93.63,-93.45 -0.02,48.76 -0.02,146.3 -0.02,146.3 L 255.96,540 Z"
       id="path8"
       inkscape:connector-curvature="0"
       style="opacity:1;fill:#ffffff;fill-opacity:1"
       sodipodi:nodetypes="cccccccccccc" />
  </g>
</svg>
