<?xml version="1.0" encoding="UTF-8"?>
<svg enable-background="new 0 0 256 256" version="1.1" viewBox="0 0 256 256" xml:space="preserve" xmlns="http://www.w3.org/2000/svg">


<path d="m61.426 60.467c-0.2067 0.13251-0.44955 0.41772-0.56711 0.63637-0.06969 0.15078-0.29576 1.2793-0.94169 4.7442-0.24568 1.3429-0.46699 2.4481-0.47726 2.4509-0.01028 0.0028-1.496 0.62105-3.2994 1.3685-2.9537 1.2208-3.2994 1.3685-3.4924 1.5523-0.81565 0.736-0.61891 2.0044 0.38322 2.5396 1.3483 0.71764 5.9669 3.2453 5.9779 3.2864 0.011 0.04105 0.41867 5.2604 0.52096 6.5871 0.03342 0.45343 0.16957 0.87935 0.35136 1.1059 0.45826 0.55979 1.2764 0.73691 1.8952 0.41696 0.16637-0.0776 1.0757-0.91579 2.8123-2.5701l2.5693-2.4499 3.45 0.83706c2.3516 0.5589 3.548 0.83284 3.7309 0.81687 0.93568-0.04154 1.6264-0.99727 1.3814-1.9115-0.03853-0.14381-0.73973-1.6514-1.5473-3.3506-0.81788-1.6965-1.484-3.1144-1.4923-3.1452-0.0083-0.03081 0.80734-1.3833 1.8089-3.0279 1.0043-1.6343 1.8528-3.0286 1.8746-3.1115 0.21861-0.49895 0.11161-1.1859-0.25125-1.5951-0.27096-0.31273-0.70277-0.52731-1.0665-0.52893-0.15481-0.0025-1.8205 0.19055-3.7095 0.45449-1.8814 0.25092-3.4362 0.44732-3.4492 0.43979-0.01302-0.0075-0.47605-0.544-1.0365-1.1975-3.6446-4.2749-3.5842-4.214-3.8577-4.3719-0.14327-0.08272-0.37697-0.17423-0.51399-0.19256-0.3001-0.0517-0.78838 0.05711-1.054 0.21636z" fill="#fcd34d" stroke-width=".10634"/><g fill="#fde68a"><path d="m85.659 36.214c-0.14554-0.03183-0.3721-0.01366-0.51636 0.02972-0.09459 0.0348-0.67577 0.42198-2.4395 1.6314-0.68159 0.47077-1.2507 0.84999-1.2563 0.84677-0.0056-0.0032-0.90832-0.3754-2.0028-0.82847-1.7911-0.74349-2.0028-0.82847-2.1644-0.83239-0.66573-0.03418-1.1255 0.59445-0.92518 1.254 0.27057 0.88638 1.1677 3.9525 1.1548 3.9748-0.01288 0.02235-2.0773 2.4366-2.6027 3.0497-0.1802 0.20888-0.30453 0.45004-0.32372 0.62522-0.04356 0.43679 0.23146 0.8638 0.63426 0.99205 0.10467 0.03809 0.85446 0.06863 2.3093 0.10392l2.1535 0.05121 1.1211 1.8394c0.76917 1.2488 1.1649 1.8796 1.2502 1.9512 0.41927 0.38363 1.1257 0.26992 1.4128-0.22741 0.04517-0.07823 0.39113-1.0259 0.77368-2.1015 0.37696-1.0788 0.69948-1.9729 0.70916-1.9897 0.0097-0.01675 0.9399-0.24712 2.0752-0.52299 1.1321-0.27027 2.0943-0.50449 2.1393-0.5307 0.30787-0.12028 0.55669-0.46092 0.57657-0.79217 0.01792-0.25043-0.07528-0.52776-0.23065-0.68452-0.06536-0.06748-0.86286-0.69934-1.7866-1.3966-0.91488-0.69957-1.6662-1.2824-1.6686-1.2912-0.0023-0.0088 0.02916-0.43765 0.06909-0.9585 0.27044-3.3979 0.27021-3.3458 0.22061-3.5309-0.02598-0.09696-0.08698-0.23649-0.13791-0.30314-0.10657-0.15094-0.36276-0.31375-0.54504-0.35938z" stroke-width=".064525"/><path d="m51.444 34.152c-0.09013 0.0042-0.21981 0.05033-0.2974 0.09832-0.04988 0.03518-0.32916 0.35277-1.1713 1.3367-0.32492 0.38222-0.5984 0.69326-0.60218 0.69225-0.0038-9.92e-4 -0.59018-0.07723-1.3014-0.17071-1.1643-0.15418-1.3014-0.17071-1.3966-0.14767-0.39479 0.08436-0.56523 0.52415-0.34464 0.87858 0.29721 0.4761 1.3026 2.1291 1.2986 2.1442-4e-3 0.01508-0.83326 1.7509-1.0445 2.192-0.07267 0.15044-0.1076 0.31099-0.09137 0.41648 0.04298 0.26234 0.27079 0.46902 0.52652 0.48091 0.0672 0.0059 0.51059-0.09378 1.3672-0.30118l1.2678-0.30759 0.94412 0.90026c0.64568 0.60993 0.97606 0.91691 1.0372 0.94543 0.30539 0.15869 0.7008-0.01855 0.79081-0.35448 0.01416-0.05284 0.068-0.66143 0.1232-1.3506 0.05142-0.69014 0.09994-1.2637 0.10297-1.2751 3e-3 -0.01133 0.51108-0.29188 1.132-0.63121 0.61987-0.33555 1.1461-0.62338 1.1682-0.64576 0.16124-0.11862 0.2534-0.35688 0.21311-0.55377-0.02877-0.1493-0.12676-0.29693-0.24222-0.36427-0.04881-0.02924-0.61436-0.27385-1.264-0.53691-0.64483-0.26583-1.1757-0.48898-1.1784-0.49377-0.0028-0.0048-0.05154-0.26058-0.10982-0.57152-0.37439-2.03-0.36637-1.9996-0.4244-2.1001-0.0304-0.05265-0.08795-0.12471-0.12819-0.15571-0.086-0.07159-0.26138-0.12668-0.37516-0.1248z" stroke-width=".039077"/><path d="m208.5 161.78c-0.0796 4e-3 -0.19406 0.0444-0.26256 0.0868-0.044 0.0311-0.29061 0.31144-1.0341 1.1802-0.28686 0.33745-0.52831 0.61206-0.53164 0.61117-3e-3 -1e-3 -0.52105-0.0682-1.149-0.15072-1.0279-0.13612-1.149-0.15071-1.233-0.13037-0.34855 0.0745-0.49903 0.46276-0.30428 0.77568 0.2624 0.42032 1.15 1.8797 1.1465 1.893-3e-3 0.0133-0.73567 1.5458-0.92214 1.9352-0.0642 0.13282-0.095 0.27457-0.0807 0.3677 0.0379 0.23161 0.23907 0.41408 0.46485 0.42458 0.0593 5e-3 0.45078-0.0828 1.207-0.26591l1.1193-0.27155 0.83353 0.79481c0.57005 0.53848 0.86174 0.80951 0.91571 0.83469 0.26962 0.1401 0.61872-0.0164 0.69818-0.31296 0.0125-0.0466 0.06-0.58395 0.10877-1.1924 0.0454-0.6093 0.0882-1.1157 0.0909-1.1257 3e-3 -0.01 0.45122-0.25769 0.99938-0.55727 0.54726-0.29625 1.0118-0.55037 1.0314-0.57012 0.14236-0.10473 0.22372-0.31508 0.18816-0.48891-0.0254-0.13182-0.11192-0.26215-0.21385-0.32161-0.0431-0.0258-0.54241-0.24177-1.1159-0.47402-0.5693-0.23469-1.038-0.43171-1.0404-0.43593-3e-3 -4e-3 -0.0455-0.23007-0.0969-0.50459-0.33054-1.7922-0.32346-1.7654-0.37469-1.8541-0.0268-0.0465-0.0777-0.11009-0.11317-0.13747-0.0759-0.0632-0.23077-0.11183-0.33122-0.11018z" stroke-width=".0345"/><path d="m231.06 135.11c-0.10022 0.0649-0.21852 0.20297-0.27565 0.3093-0.0337 0.0733-0.14367 0.62178-0.4577 2.3059-0.1194 0.65272-0.22697 1.1899-0.23196 1.1912-4e-3 9.4e-4 -0.72715 0.30182-1.6037 0.66513-1.4356 0.59338-1.6037 0.66516-1.6974 0.75449-0.39642 0.35776-0.30082 0.97425 0.18625 1.2344 0.65533 0.3488 2.9002 1.5774 2.9056 1.5973 6e-3 0.0195 0.20349 2.5568 0.25321 3.2016 0.0162 0.22041 0.0824 0.4274 0.17074 0.53752 0.22266 0.27211 0.62037 0.35817 0.92117 0.20267 0.0806-0.0379 0.52286-0.44511 1.3669-1.2492l1.2488-1.1908 1.6769 0.40685c1.143 0.27164 1.7245 0.4048 1.8134 0.39704 0.45478-0.0202 0.79049-0.48476 0.67143-0.92906-0.0187-0.0698-0.35958-0.80261-0.75207-1.6286-0.39752-0.82456-0.72134-1.5137-0.72532-1.5287-3e-3 -0.0153 0.3924-0.67236 0.87921-1.4717 0.48814-0.79433 0.90052-1.472 0.91113-1.5123 0.10622-0.24251 0.0542-0.57638-0.12211-0.77528-0.13169-0.15201-0.34158-0.2563-0.51839-0.25709-0.0752-1e-3 -0.88486 0.0926-1.803 0.22091-0.91447 0.12195-1.6701 0.21741-1.6765 0.21376-7e-3 -3e-3 -0.23138-0.26442-0.50371-0.58209-1.7714-2.0778-1.7421-2.0482-1.875-2.125-0.0697-0.0403-0.18327-0.0846-0.2498-0.0936-0.14578-0.0252-0.3832 0.0277-0.51228 0.10517z" stroke-width=".051687"/><path d="m180.36 84.092c-0.0913-0.02-0.23343-9e-3 -0.32392 0.0186-0.0593 0.0218-0.42392 0.26471-1.5303 1.0234-0.42756 0.29532-0.78459 0.53322-0.78809 0.53119-4e-3 -2e-3 -0.5698-0.23549-1.2564-0.51971-1.1236-0.4664-1.2564-0.5197-1.3578-0.52216-0.41762-0.0214-0.70606 0.3729-0.58037 0.78666 0.16973 0.55604 0.73252 2.4794 0.72442 2.4935-8e-3 0.014-1.3031 1.5285-1.6327 1.9131-0.11304 0.13104-0.19104 0.28231-0.20308 0.39221-0.0273 0.27401 0.1452 0.54188 0.39788 0.62233 0.0657 0.0239 0.53602 0.0431 1.4487 0.0652l1.3509 0.0321 0.70328 1.1539c0.48251 0.78336 0.73077 1.1791 0.78429 1.224 0.26302 0.24066 0.70616 0.16933 0.88628-0.14265 0.0283-0.0491 0.24536-0.64356 0.48534-1.3183 0.23648-0.67673 0.4388-1.2376 0.44487-1.2482 6e-3 -0.0105 0.58961-0.15502 1.3018-0.32808 0.71017-0.16954 1.3138-0.31647 1.342-0.33291 0.19313-0.0755 0.34922-0.28915 0.36169-0.49694 0.0112-0.1571-0.0472-0.33108-0.14469-0.42941-0.041-0.0423-0.54128-0.43871-1.1207-0.87608-0.57391-0.43885-1.0452-0.80444-1.0467-0.80997-2e-3 -6e-3 0.0183-0.27455 0.0433-0.60128 0.16965-2.1315 0.1695-2.0989 0.13839-2.215-0.0163-0.0608-0.0546-0.14835-0.0865-0.19017-0.0669-0.0947-0.22756-0.19682-0.34191-0.22544z" stroke-width=".040478"/></g></svg>
