<?xml version="1.0" encoding="UTF-8" standalone="no"?>
<!-- Svg Vector Icons : http://www.onlinewebfonts.com/icon -->

<svg
   version="1.1"
   x="0px"
   y="0px"
   viewBox="0 0 256 256"
   enable-background="new 0 0 256 256"
   xml:space="preserve"
   id="svg3"
   sodipodi:docname="star-bigger.svg"
   inkscape:version="1.3.2 (091e20ef0f, 2023-11-25)"
   xmlns:inkscape="http://www.inkscape.org/namespaces/inkscape"
   xmlns:sodipodi="http://sodipodi.sourceforge.net/DTD/sodipodi-0.dtd"
   xmlns="http://www.w3.org/2000/svg"
   xmlns:svg="http://www.w3.org/2000/svg"><defs
   id="defs3" /><sodipodi:namedview
   id="namedview3"
   pagecolor="#ffffff"
   bordercolor="#000000"
   borderopacity="0.25"
   inkscape:showpageshadow="2"
   inkscape:pageopacity="0.0"
   inkscape:pagecheckerboard="0"
   inkscape:deskcolor="#d1d1d1"
   inkscape:zoom="1.4921875"
   inkscape:cx="72.712042"
   inkscape:cy="195.35079"
   inkscape:window-width="1280"
   inkscape:window-height="955"
   inkscape:window-x="0"
   inkscape:window-y="0"
   inkscape:window-maximized="1"
   inkscape:current-layer="svg3" />
<metadata
   id="metadata1"> Svg Vector Icons : http://www.onlinewebfonts.com/icon </metadata>
<g
   id="g3"
   transform="matrix(0.42340392,0,0,0.42340392,73.783128,73.818841)"
   style="fill:#f59e0b;fill-opacity:1"><g
     id="g2"
     style="fill:#f59e0b;fill-opacity:1"><g
       id="g1"
       style="fill:#f59e0b;fill-opacity:1"><path
         fill="#000000"
         d="m 123.9,10.9 c -1.2,0.4 -2.8,1.3 -3.6,1.8 -1,0.7 -6.6,11.3 -18.1,34.3 l -16.8,33.3 -33.8,0.3 -33.8,0.3 -2.3,1.6 c -4.5,2.9 -6.5,8 -5.1,13.1 0.6,2.3 3.3,5.2 28.9,30.8 l 28.3,28.3 -11.1,39 c -6.2,21.5 -11.1,39.7 -11.1,40.4 0,7.5 7.6,13.2 14.8,11.1 0.9,-0.3 16.6,-10.4 34.8,-22.5 l 33.1,-22 33,22 c 18.1,12.1 33.8,22.2 34.8,22.5 7.2,2.1 14.8,-3.6 14.8,-11.1 0,-0.8 -5,-19 -11.1,-40.4 l -11.1,-39 28.3,-28.4 c 25.7,-25.7 28.3,-28.6 28.9,-30.8 1.4,-5.1 -0.6,-10.2 -5.1,-13.1 L 238.3,80.8 204.6,80.6 170.9,80.4 154.8,48.1 C 145.9,30.4 138.2,15.2 137.6,14.3 134.9,11 128.2,9.3 123.9,10.9 Z"
         id="path1"
         style="fill:#f59e0b;fill-opacity:1" /></g></g></g>
<path
   fill="#000000"
   d="m 61.425889,60.467198 c -0.2067,0.132513 -0.449553,0.417716 -0.567114,0.636374 -0.06969,0.150785 -0.295763,1.279279 -0.941693,4.744161 -0.245683,1.342917 -0.46699,2.448099 -0.477263,2.450852 -0.01028,0.0028 -1.496008,0.621047 -3.299438,1.368498 -2.953683,1.220807 -3.299439,1.368498 -3.492393,1.552311 -0.815654,0.735996 -0.618907,2.004404 0.383223,2.539569 1.348277,0.717643 5.966922,3.245298 5.977932,3.286388 0.011,0.04105 0.418673,5.260393 0.520959,6.587147 0.03342,0.45343 0.169569,0.879346 0.351363,1.105873 0.458257,0.559788 1.276374,0.736909 1.895245,0.416962 0.166367,-0.0776 1.075743,-0.915788 2.812324,-2.570118 l 2.569294,-2.449931 3.450039,0.837056 c 2.351633,0.558896 3.547994,0.83284 3.730875,0.816873 0.935678,-0.04154 1.626396,-0.997274 1.381436,-1.911474 -0.03853,-0.143807 -0.739733,-1.651362 -1.547342,-3.350597 -0.817882,-1.696483 -1.484042,-3.114351 -1.492298,-3.145164 -0.0083,-0.03081 0.807344,-1.383322 1.808917,-3.027875 1.00433,-1.634266 1.852761,-3.028597 1.874582,-3.111509 0.218608,-0.498952 0.111607,-1.185895 -0.251252,-1.595093 -0.270956,-0.312727 -0.702771,-0.527307 -1.066515,-0.528929 -0.154807,-0.0025 -1.820537,0.190553 -3.709486,0.454493 -1.881429,0.250919 -3.436173,0.447319 -3.4492,0.439794 -0.01302,-0.0075 -0.476046,-0.544003 -1.036484,-1.197519 -3.64459,-4.274915 -3.584236,-4.21402 -3.857745,-4.371932 -0.143269,-0.08272 -0.376967,-0.17423 -0.513992,-0.19256 -0.300097,-0.0517 -0.788382,0.05711 -1.053974,0.21636 z"
   id="path3"
   style="fill:#fcd34d;fill-opacity:1;stroke-width:0.106343" /><path
   fill="#000000"
   d="m 85.658647,36.214148 c -0.145535,-0.03183 -0.3721,-0.01366 -0.516356,0.02972 -0.09459,0.0348 -0.67577,0.421976 -2.439509,1.631444 -0.681587,0.470768 -1.250715,0.849993 -1.256304,0.846767 -0.0056,-0.0032 -0.908321,-0.375401 -2.002774,-0.828468 -1.791059,-0.743488 -2.002773,-0.828469 -2.164424,-0.83239 -0.665734,-0.03418 -1.125529,0.594446 -0.925178,1.25402 0.270573,0.886381 1.16771,3.952494 1.154804,3.974847 -0.01288,0.02235 -2.077335,2.436597 -2.602692,3.049726 -0.180203,0.208884 -0.304529,0.450036 -0.323722,0.625225 -0.04356,0.436792 0.231458,0.863798 0.634257,0.99205 0.10467,0.03809 0.854463,0.06863 2.309331,0.103919 l 2.153493,0.05121 1.121097,1.839373 c 0.769172,1.24876 1.164934,1.879593 1.25025,1.951207 0.419271,0.383632 1.125682,0.269925 1.412819,-0.227413 0.04517,-0.07823 0.391134,-1.025896 0.773685,-2.101455 0.376963,-1.078785 0.699483,-1.972936 0.70916,-1.989698 0.0097,-0.01675 0.939903,-0.247123 2.075221,-0.522993 1.132086,-0.270273 2.094341,-0.504491 2.139277,-0.530701 0.307869,-0.120282 0.556692,-0.460922 0.576573,-0.792173 0.01792,-0.250428 -0.07528,-0.527763 -0.23065,-0.684524 -0.06536,-0.06748 -0.862856,-0.699342 -1.786551,-1.396551 -0.914882,-0.699569 -1.666208,-1.282365 -1.668569,-1.291182 -0.0023,-0.0088 0.02916,-0.437651 0.06909,-0.958497 0.27044,-3.397855 0.270208,-3.345834 0.220611,-3.530934 -0.02598,-0.09696 -0.08698,-0.236491 -0.13791,-0.303145 -0.106574,-0.150939 -0.362755,-0.313754 -0.545035,-0.359378 z"
   id="path4"
   style="fill:#fde68a;fill-opacity:1;stroke-width:0.0645254" /><path
   fill="#000000"
   d="m 51.444058,34.151607 c -0.09013,0.0042 -0.219809,0.05033 -0.297395,0.09832 -0.04988,0.03518 -0.329164,0.352766 -1.171325,1.336723 -0.324919,0.382218 -0.598403,0.693261 -0.602178,0.692249 -0.0038,-9.92e-4 -0.590182,-0.07723 -1.301419,-0.17071 -1.164255,-0.154183 -1.301421,-0.170709 -1.396597,-0.147666 -0.394792,0.08436 -0.565227,0.524152 -0.344644,0.87858 0.297211,0.476097 1.3026,2.129064 1.298554,2.144163 -0.004,0.01508 -0.833262,1.750945 -1.044477,2.191953 -0.07267,0.150436 -0.107601,0.31099 -0.09137,0.416479 0.04298,0.262339 0.270789,0.469017 0.526517,0.480906 0.0672,0.0059 0.510594,-0.09378 1.36718,-0.301181 l 1.267758,-0.307586 0.944117,0.900256 c 0.645677,0.609926 0.976065,0.916912 1.037197,0.945432 0.305394,0.158694 0.7008,-0.01855 0.790813,-0.354478 0.01416,-0.05284 0.068,-0.661427 0.123195,-1.35056 0.05142,-0.690144 0.09994,-1.263748 0.102968,-1.275071 0.003,-0.01133 0.511082,-0.291882 1.131969,-0.631211 0.619874,-0.335548 1.146054,-0.623384 1.168231,-0.645761 0.161241,-0.118617 0.253403,-0.356883 0.213112,-0.553771 -0.02877,-0.149302 -0.126761,-0.296926 -0.242218,-0.364273 -0.04881,-0.02924 -0.614362,-0.273849 -1.263979,-0.536914 -0.644831,-0.265826 -1.175684,-0.48898 -1.178447,-0.493768 -0.0028,-0.0048 -0.05154,-0.260584 -0.109821,-0.571523 -0.374388,-2.030036 -0.36637,-1.999568 -0.424396,-2.100073 -0.0304,-0.05265 -0.08795,-0.124706 -0.128189,-0.155714 -0.086,-0.07159 -0.261381,-0.126677 -0.37516,-0.124795 z"
   id="path5"
   style="fill:#fde68a;fill-opacity:1;stroke-width:0.039077" /><path
   fill="#000000"
   d="m 208.50326,161.77655 c -0.0796,0.004 -0.19406,0.0444 -0.26256,0.0868 -0.044,0.0311 -0.29061,0.31144 -1.03413,1.18015 -0.28686,0.33745 -0.52831,0.61206 -0.53164,0.61117 -0.003,-0.001 -0.52105,-0.0682 -1.14898,-0.15072 -1.02788,-0.13612 -1.14899,-0.15071 -1.23301,-0.13037 -0.34855,0.0745 -0.49903,0.46276 -0.30428,0.77568 0.2624,0.42032 1.15003,1.87968 1.14646,1.89301 -0.003,0.0133 -0.73567,1.54585 -0.92214,1.9352 -0.0642,0.13282 -0.095,0.27457 -0.0807,0.3677 0.0379,0.23161 0.23907,0.41408 0.46485,0.42458 0.0593,0.005 0.45078,-0.0828 1.20704,-0.26591 l 1.11926,-0.27155 0.83353,0.79481 c 0.57005,0.53848 0.86174,0.80951 0.91571,0.83469 0.26962,0.1401 0.61872,-0.0164 0.69818,-0.31296 0.0125,-0.0466 0.06,-0.58395 0.10877,-1.19237 0.0454,-0.6093 0.0882,-1.11572 0.0909,-1.12572 0.003,-0.01 0.45122,-0.25769 0.99938,-0.55727 0.54726,-0.29625 1.01181,-0.55037 1.03139,-0.57012 0.14236,-0.10473 0.22372,-0.31508 0.18816,-0.48891 -0.0254,-0.13182 -0.11192,-0.26215 -0.21385,-0.32161 -0.0431,-0.0258 -0.54241,-0.24177 -1.11593,-0.47402 -0.5693,-0.23469 -1.03798,-0.43171 -1.04042,-0.43593 -0.003,-0.004 -0.0455,-0.23007 -0.0969,-0.50459 -0.33054,-1.79225 -0.32346,-1.76535 -0.37469,-1.85409 -0.0268,-0.0465 -0.0777,-0.11009 -0.11317,-0.13747 -0.0759,-0.0632 -0.23077,-0.11183 -0.33122,-0.11018 z"
   id="path6"
   style="fill:#fde68a;fill-opacity:1;stroke-width:0.0344998" /><path
   fill="#000000"
   d="m 231.05884,135.11113 c -0.10022,0.0649 -0.21852,0.20297 -0.27565,0.3093 -0.0337,0.0733 -0.14367,0.62178 -0.4577,2.30588 -0.1194,0.65272 -0.22697,1.18988 -0.23196,1.19123 -0.004,9.4e-4 -0.72715,0.30182 -1.60368,0.66513 -1.43561,0.59338 -1.60368,0.66516 -1.69745,0.75449 -0.39642,0.35776 -0.30082,0.97425 0.18625,1.23436 0.65533,0.3488 2.9002,1.57735 2.90555,1.59732 0.006,0.0195 0.20349,2.55678 0.25321,3.20165 0.0162,0.22041 0.0824,0.4274 0.17074,0.53752 0.22266,0.27211 0.62037,0.35817 0.92117,0.20267 0.0806,-0.0379 0.52286,-0.44511 1.36691,-1.2492 l 1.24879,-1.19077 1.67688,0.40685 c 1.143,0.27164 1.72448,0.4048 1.81336,0.39704 0.45478,-0.0202 0.79049,-0.48476 0.67143,-0.92906 -0.0187,-0.0698 -0.35958,-0.80261 -0.75207,-1.62855 -0.39752,-0.82456 -0.72134,-1.51368 -0.72532,-1.52868 -0.003,-0.0153 0.3924,-0.67236 0.87921,-1.47167 0.48814,-0.79433 0.90052,-1.47204 0.91113,-1.51234 0.10622,-0.24251 0.0542,-0.57638 -0.12211,-0.77528 -0.13169,-0.15201 -0.34158,-0.2563 -0.51839,-0.25709 -0.0752,-0.001 -0.88486,0.0926 -1.80296,0.22091 -0.91447,0.12195 -1.67014,0.21741 -1.67648,0.21376 -0.007,-0.003 -0.23138,-0.26442 -0.50371,-0.58209 -1.77143,-2.0778 -1.7421,-2.0482 -1.87505,-2.12496 -0.0697,-0.0403 -0.18327,-0.0846 -0.2498,-0.0936 -0.14578,-0.0252 -0.3832,0.0277 -0.51228,0.10517 z"
   id="path7"
   style="fill:#fde68a;fill-opacity:1;stroke-width:0.0516873" /><path
   fill="#000000"
   d="m 180.35612,84.091992 c -0.0913,-0.02 -0.23343,-0.009 -0.32392,0.0186 -0.0593,0.0218 -0.42392,0.26471 -1.53034,1.02342 -0.42756,0.29532 -0.78459,0.53322 -0.78809,0.53119 -0.004,-0.002 -0.5698,-0.23549 -1.25637,-0.51971 -1.12355,-0.4664 -1.25636,-0.5197 -1.35777,-0.52216 -0.41762,-0.0214 -0.70606,0.3729 -0.58037,0.78666 0.16973,0.55604 0.73252,2.47945 0.72442,2.49347 -0.008,0.014 -1.30314,1.52851 -1.6327,1.91313 -0.11304,0.13104 -0.19104,0.28231 -0.20308,0.39221 -0.0273,0.27401 0.1452,0.54188 0.39788,0.62233 0.0657,0.0239 0.53602,0.0431 1.44867,0.0652 l 1.35092,0.0321 0.70328,1.15387 c 0.48251,0.78336 0.73077,1.17909 0.78429,1.22401 0.26302,0.24066 0.70616,0.16933 0.88628,-0.14265 0.0283,-0.0491 0.24536,-0.64356 0.48534,-1.31828 0.23648,-0.67673 0.4388,-1.23764 0.44487,-1.24816 0.006,-0.0105 0.58961,-0.15502 1.30181,-0.32808 0.71017,-0.16954 1.31381,-0.31647 1.342,-0.33291 0.19313,-0.0755 0.34922,-0.28915 0.36169,-0.49694 0.0112,-0.1571 -0.0472,-0.33108 -0.14469,-0.42941 -0.041,-0.0423 -0.54128,-0.43871 -1.12073,-0.87608 -0.57391,-0.43885 -1.04523,-0.80444 -1.04671,-0.80997 -0.002,-0.006 0.0183,-0.27455 0.0433,-0.60128 0.16965,-2.13152 0.1695,-2.09889 0.13839,-2.215 -0.0163,-0.0608 -0.0546,-0.14835 -0.0865,-0.19017 -0.0669,-0.0947 -0.22756,-0.19682 -0.34191,-0.22544 z"
   id="path8"
   style="fill:#fde68a;fill-opacity:1;stroke-width:0.0404776" /></svg>
