<?xml version="1.0" encoding="UTF-8"?>
<svg enable-background="new 0 0 256 256" version="1.1" viewBox="0 0 256 256" xml:space="preserve" xmlns="http://www.w3.org/2000/svg">

<g transform="matrix(.4234 0 0 .4234 73.783 73.819)" fill="#f59e0b"><g fill="#f59e0b"><g fill="#f59e0b"><path d="m123.9 10.9c-1.2 0.4-2.8 1.3-3.6 1.8-1 0.7-6.6 11.3-18.1 34.3l-16.8 33.3-67.6 0.6-2.3 1.6c-4.5 2.9-6.5 8-5.1 13.1 0.6 2.3 3.3 5.2 28.9 30.8l28.3 28.3-11.1 39c-6.2 21.5-11.1 39.7-11.1 40.4 0 7.5 7.6 13.2 14.8 11.1 0.9-0.3 16.6-10.4 34.8-22.5l33.1-22 33 22c18.1 12.1 33.8 22.2 34.8 22.5 7.2 2.1 14.8-3.6 14.8-11.1 0-0.8-5-19-11.1-40.4l-11.1-39 28.3-28.4c25.7-25.7 28.3-28.6 28.9-30.8 1.4-5.1-0.6-10.2-5.1-13.1l-2.3-1.6-67.4-0.4-16.1-32.3c-8.9-17.7-16.6-32.9-17.2-33.8-2.7-3.3-9.4-5-13.7-3.4z" fill="#f59e0b"/></g></g></g>
</svg>
