<?xml version="1.0" encoding="UTF-8" standalone="no"?>
<svg
   xmlns:dc="http://purl.org/dc/elements/1.1/"
   xmlns:cc="http://creativecommons.org/ns#"
   xmlns:rdf="http://www.w3.org/1999/02/22-rdf-syntax-ns#"
   xmlns:svg="http://www.w3.org/2000/svg"
   xmlns="http://www.w3.org/2000/svg"
   width="80"
   height="80"
   viewBox="0 0 80 80"
   version="1.1"
   id="svg4">
  <metadata
     id="metadata10">
    <rdf:RDF>
      <cc:Work
         rdf:about="">
        <dc:format>image/svg+xml</dc:format>
        <dc:type
           rdf:resource="http://purl.org/dc/dcmitype/StillImage" />
        <dc:title></dc:title>
      </cc:Work>
    </rdf:RDF>
  </metadata>
  <defs
     id="defs8" />
  <path
     d="M 40.000305,10 C 23.431158,10 10,23.430885 10,39.999695 10,56.568505 23.431158,70 40.000305,70 56.569454,70 70,56.568505 70,39.999695 70,23.430885 56.569454,10 40.000305,10 Z m 5.234261,47.740339 c 0,2.689476 -2.325388,4.868795 -5.193324,4.868795 -2.867938,0 -5.193324,-2.179319 -5.193324,-4.868795 v -22.33817 c 0,-2.688865 2.325386,-4.868795 5.193324,-4.868795 2.867936,0 5.193324,2.17993 5.193324,4.868795 z M 40.000305,28.525738 c -3.084223,0 -5.584961,-2.500077 -5.584961,-5.58546 0,-3.084771 2.500127,-5.584848 5.584961,-5.584848 3.085446,0 5.585573,2.500077 5.585573,5.584848 -6.11e-4,3.085383 -2.500738,5.58546 -5.585573,5.58546 z"
     id="path2"
     style="fill:#ffffff;fill-opacity:1;stroke-width:0.99999994" />
</svg>
