<?xml version="1.0" encoding="UTF-8" standalone="no"?>
<svg
   xmlns:dc="http://purl.org/dc/elements/1.1/"
   xmlns:cc="http://creativecommons.org/ns#"
   xmlns:rdf="http://www.w3.org/1999/02/22-rdf-syntax-ns#"
   xmlns:svg="http://www.w3.org/2000/svg"
   xmlns="http://www.w3.org/2000/svg"
   id="svg8"
   version="1.1"
   viewBox="0 0 21.166666 21.166667"
   height="80"
   width="80">
  <defs
     id="defs2" />
  <metadata
     id="metadata5">
    <rdf:RDF>
      <cc:Work
         rdf:about="">
        <dc:format>image/svg+xml</dc:format>
        <dc:type
           rdf:resource="http://purl.org/dc/dcmitype/StillImage" />
        <dc:title></dc:title>
      </cc:Work>
    </rdf:RDF>
  </metadata>
  <g
     transform="translate(0,-275.83333)"
     id="layer1">
    <path
       id="path828"
       d="m 17.200598,290.42117 -0.0082,2.89259 -0.09975,0.15544 c -0.11435,0.17819 -0.280517,0.29991 -0.468632,0.3433 -0.0796,0.0184 -0.992389,-0.0223 -2.340994,-0.0218 l -2.210453,6e-4 v -2.19967 c 0,-1.97779 -0.0048,-2.20154 -0.04806,-2.21812 -0.06277,-0.0241 -2.8188449,-0.0241 -2.8816199,0 -0.04321,0.0165 -0.04806,0.24033 -0.04806,2.21812 v 2.19967 l -2.2257142,-0.003 c -1.2241493,-0.002 -2.2769519,-0.0151 -2.3395682,-0.0298 l -9.57e-5,-1e-4 c -0.1730044,-0.0408 -0.3441835,-0.16946 -0.4548718,-0.34194 l -0.099754,-0.15544 -0.00819,-2.89246 -0.00819,-3.84832 c -1.3742159,1.14527 -1.4969004,1.24774 -1.7168068,1.15195 l 5e-7,-5.1e-4 c -0.1012038,-0.0441 -0.8486069,-0.91425 -0.8998728,-1.04767 -0.042632,-0.11096 -0.01053,-0.27191 0.071905,-0.36052 0.2143467,-0.23038 8.340113,-6.96277 8.527142,-7.06494 0.2495349,-0.13631 0.5296869,-0.18291 0.8544389,-0.14213 0.396222,0.0498 0.379638,0.0377 2.523012,1.83216 l 0.926748,0.77588 0.01519,-1.17583 c 0.0162,-1.25418 0.01629,-1.25487 0.17348,-1.36142 0.133214,-0.0903 2.469662,-0.0886 2.603312,0.002 0.175062,0.11854 0.170569,0.0494 0.170569,2.62805 v 2.37034 l 1.253388,1.04407 c 0.689364,0.57425 1.2779,1.07193 1.307861,1.10598 0.06918,0.0786 0.09614,0.24358 0.05662,0.34645 -0.05718,0.14882 -0.799557,1.00426 -0.912467,1.05144 -0.209356,0.0875 -0.353503,-0.0296 -1.704467,-1.1555 z"
       style="fill:#ffffff;stroke-width:0.99999994;fill-opacity:1" />
  </g>
</svg>
