<?xml version="1.0" encoding="UTF-8" standalone="no"?>
<svg
   xmlns:dc="http://purl.org/dc/elements/1.1/"
   xmlns:cc="http://creativecommons.org/ns#"
   xmlns:rdf="http://www.w3.org/1999/02/22-rdf-syntax-ns#"
   xmlns:svg="http://www.w3.org/2000/svg"
   xmlns="http://www.w3.org/2000/svg"
   height="80"
   width="80"
   id="svg8"
   xml:space="preserve"
   enable-background="new 0 0 1000 1000"
   viewBox="0 0 80 80"
   y="0px"
   x="0px"
   version="1.1"><defs
   id="defs12" />
<metadata
   id="metadata2"> Svg Vector Icons : http://www.onlinewebfonts.com/icon <rdf:RDF><cc:Work
     rdf:about=""><dc:format>image/svg+xml</dc:format><dc:type
       rdf:resource="http://purl.org/dc/dcmitype/StillImage" /><dc:title></dc:title></cc:Work></rdf:RDF></metadata>
<g
   style="stroke-width:13.99999905;fill:#ffffff;fill-opacity:1"
   transform="matrix(0.07142857,0,0,0.07142857,4.2857143,4.2820013)"
   id="g6"><path
     style="stroke-width:13.99999905;fill:#ffffff;fill-opacity:1"
     id="path4"
     d="M 10,377.6 V 274.2 h 980 v 108.1 c 0,219.4 -980,213 -980,-4.7 z M 371.3,186.1 c 0,-8.9 7.2,-16.1 16.1,-16.1 h 225.3 c 8.9,0 16.1,7.2 16.1,16.1 v 40.6 h 71.4 V 154 c 0,-27.9 -22.7,-50.6 -50.6,-50.6 h -299 c -27.9,0 -50.6,22.7 -50.6,50.6 v 72.7 h 71.4 V 186.1 Z M 970.8,519.2 V 896.7 H 29.2 V 514.4 C 215.6,642.6 783,647.1 970.8,519.2 Z M 553.9,661.7 H 446.1 v 42.6 c 0,29.8 24.2,53.9 53.9,53.9 29.7,0 53.9,-24.2 53.9,-53.9 z" /></g>
</svg>