<?xml version="1.0" encoding="UTF-8" standalone="no"?>
<svg
   xmlns:dc="http://purl.org/dc/elements/1.1/"
   xmlns:cc="http://creativecommons.org/ns#"
   xmlns:rdf="http://www.w3.org/1999/02/22-rdf-syntax-ns#"
   xmlns:svg="http://www.w3.org/2000/svg"
   xmlns="http://www.w3.org/2000/svg"
   width="80"
   id="svg4"
   version="1.1"
   viewBox="0 0 80 160"
   height="80"
   class="icon">
  <metadata
     id="metadata10">
    <rdf:RDF>
      <cc:Work
         rdf:about="">
        <dc:format>image/svg+xml</dc:format>
        <dc:type
           rdf:resource="http://purl.org/dc/dcmitype/StillImage" />
        <dc:title></dc:title>
      </cc:Work>
    </rdf:RDF>
  </metadata>
  <defs
     id="defs8" />
  <path
     style="stroke-width:1;fill:#ffffff;fill-opacity:1"
     id="path2"
     d="M -2.2837621,44.598408 H -25.082328 c -2.61971,0 -5.239422,2.26569 -4.885406,5.947445 l 11.045267,70.732197 c 0,0 13.0985548,-52.111008 15.647463,-64.643134 0.7788331,-3.752559 4.3189836,-4.956209 6.9386936,-4.956209 H 40.198036 c 0,0 -4.956209,-14.727028 -5.45183,-16.35549 -0.849636,-3.115333 -2.407302,-4.885414 -5.522634,-4.885414 H 5.7877796 c -2.548907,0 -4.95621001,1.628471 -5.66424001,4.531397 -0.6372266,2.832122 -2.40730169,9.629208 -2.40730169,9.629208 z m 34.5518631,0 H 3.9469016 c 0,0 2.973726,-7.080298 6.1598614,-7.080298 h 15.081038 c 3.398544,0 7.0803,7.080298 7.0803,7.080298 z m -43.968662,79.653372 c -2.194893,3.32774 -5.381028,5.31022 -8.921178,5.31022 H 90.751379 c 3.82336,0 6.51386,-2.19489 7.2927,-5.87665 3.115331,-15.50585 11.894901,-59.757729 11.894901,-59.757729 0.49562,-3.540145 -2.1241,-5.168616 -4.38979,-5.168616 H 82.679839 V 48.350968 c 0,-1.132854 -1.840877,-3.75256 -4.672998,-3.75256 H 51.38491 c -3.681756,0 -6.15986,4.106567 -6.15986,4.106567 l -5.027014,10.05403 H 8.9739136 c -2.265695,0 -4.460587,1.34526 -4.885406,3.540154 0,0 -11.2576763,47.438001 -12.1781159,51.898591 -0.495621,2.61972 -1.5576658,7.0095 -3.6109527,10.05403 z M 78.290052,58.759005 H 47.278337 c 0,0 4.106573,-7.080298 8.000738,-7.080298 h 16.21389 c 5.027006,0 6.797087,7.080298 6.797087,7.080298 z" />
</svg>
