<?xml version="1.0" encoding="UTF-8" standalone="no"?>
<svg
   xmlns:dc="http://purl.org/dc/elements/1.1/"
   xmlns:cc="http://creativecommons.org/ns#"
   xmlns:rdf="http://www.w3.org/1999/02/22-rdf-syntax-ns#"
   xmlns:svg="http://www.w3.org/2000/svg"
   xmlns="http://www.w3.org/2000/svg"
   version="1.1"
   x="0px"
   y="0px"
   viewBox="0 0 80 80"
   enable-background="new 0 0 1000 1000"
   xml:space="preserve"
   id="svg8"
   width="80"
   height="80"><defs
   id="defs12" />
<metadata
   id="metadata2"> Svg Vector Icons : http://www.onlinewebfonts.com/icon <rdf:RDF><cc:Work
     rdf:about=""><dc:format>image/svg+xml</dc:format><dc:type
       rdf:resource="http://purl.org/dc/dcmitype/StillImage" /><dc:title></dc:title></cc:Work></rdf:RDF></metadata>
<g
   id="g6"
   transform="matrix(0.06122449,0,0,0.06122449,9.3877551,9.3877549)"
   style="fill:#ffffff;fill-opacity:1;stroke-width:16.33333206"><path
     d="M 500,10 C 229.4,10 10,229.4 10,500 10,770.6 229.4,990 500,990 770.6,990 990,770.6 990,500 990,229.4 770.6,10 500,10 Z M 317.7,822.1 c -11,0 -21.8,-3.5 -30.9,-10.2 -14.3,-10.5 -22.3,-27.6 -21.2,-45.3 l 10.5,-168.3 -109,-134.2 c -11.3,-13.9 -14.7,-32.6 -9,-49.5 5.7,-17 19.7,-29.8 37.1,-34.1 L 360.1,340 451.6,194.1 c 9.5,-15.2 26.3,-24.5 44.2,-24.5 18,0 34.7,9.2 44.2,24.5 l 91.6,145.9 164.8,40.4 c 17.4,4.2 31.4,17.1 37.1,34.1 5.7,17 2.3,35.7 -9,49.5 l -109,134.2 10.2,163.1 c 0.5,2.8 0.7,5.6 0.7,8.5 0,28.8 -23.4,52.2 -52.2,52.2 -0.1,0 -0.2,0 -0.3,0 -6.3,0 -12.6,-1.1 -18.6,-3.4 L 495.8,757.8 336.3,818.6 c -6,2.4 -12.3,3.5 -18.6,3.5 z M 500,10 C 229.4,10 10,229.4 10,500 10,770.6 229.4,990 500,990 770.6,990 990,770.6 990,500 990,229.4 770.6,10 500,10 Z m 324.5,454.1 -109,134.2 10.2,163.1 c 0.5,2.8 0.7,5.6 0.7,8.5 0,28.8 -23.4,52.2 -52.2,52.2 -0.1,0 -0.2,0 -0.3,0 -6.3,0 -12.6,-1.1 -18.6,-3.4 L 495.8,757.9 336.3,818.7 c -6,2.3 -12.3,3.4 -18.6,3.4 -11,0 -21.8,-3.5 -30.9,-10.2 -14.3,-10.5 -22.3,-27.6 -21.2,-45.3 L 276.1,598.2 167.1,464 c -11.3,-13.9 -14.7,-32.6 -9,-49.5 5.7,-17 19.7,-29.8 37.1,-34.1 L 360.1,340 451.6,194.1 c 9.6,-15.2 26.2,-24.5 44.2,-24.5 18,0 34.7,9.2 44.2,24.5 l 91.6,145.9 164.8,40.4 c 17.4,4.2 31.4,17.1 37.1,34.1 5.6,17 2.3,35.7 -9,49.6 z"
     id="path4"
     style="fill:#ffffff;fill-opacity:1;stroke-width:16.33333206" /></g>
</svg>