<?xml version="1.0" encoding="UTF-8"?>
<svg enable-background="new 0 0 512 512" version="1.1" viewBox="0 0 512 512" xml:space="preserve" xmlns="http://www.w3.org/2000/svg" xmlns:cc="http://creativecommons.org/ns#" xmlns:dc="http://purl.org/dc/elements/1.1/" xmlns:rdf="http://www.w3.org/1999/02/22-rdf-syntax-ns#"><metadata><rdf:RDF><cc:Work rdf:about=""><dc:format>image/svg+xml</dc:format><dc:type rdf:resource="http://purl.org/dc/dcmitype/StillImage"/><dc:title/></cc:Work></rdf:RDF></metadata>
<style type="text/css">
	.st0{fill:#0866B0;}
</style>
<g fill="#fff" style="fill:#fff">
	<g fill="#fff" style="fill:#fff">
		<g fill="#fff" style="fill:#fff">
			<path class="st0" d="m486.4 59.7h-460.8c-14.1 0-25.6 11.5-25.6 25.6v341.3c0 14.1 11.5 25.6 25.6 25.6h460.8c14.1 0 25.6-11.5 25.6-25.6v-341.3c0-14.1-11.5-25.6-25.6-25.6zm8.5 367c0 4.7-3.8 8.5-8.5 8.5h-460.8c-4.7 0-8.5-3.8-8.5-8.5v-341.4c0-4.7 3.8-8.5 8.5-8.5h460.8c4.7 0 8.5 3.8 8.5 8.5v341.4z" style="fill:#fff"/>
			<path class="st0" d="m470.1 93.9c-2.3-0.2-4.5 0.5-6.2 2l-196.9 165.3c-6.3 5.3-15.6 5.3-22 0l-196.8-165.3c-2.3-2-5.5-2.5-8.4-1.5s-5 3.5-5.5 6.5 0.6 6.1 2.9 8l196.8 165.4c12.7 10.7 31.2 10.7 43.9 0l196.9-165.4c1.7-1.5 2.8-3.5 3-5.8s-0.5-4.5-2-6.2c-1.4-1.7-3.5-2.8-5.7-3z" style="fill:#fff"/>
			<path class="st0" d="m164.1 273.1c-3-0.7-6.2 0.3-8.2 2.6l-119.5 128c-2.2 2.2-3 5.4-2.1 8.4s3.3 5.2 6.3 5.9 6.2-0.3 8.2-2.6l119.5-128c2.2-2.2 3-5.4 2.1-8.4s-3.3-5.2-6.3-5.9z" style="fill:#fff"/>
			<path class="st0" d="m356.1 275.8c-2.1-2.3-5.2-3.3-8.2-2.6s-5.4 2.9-6.3 5.9-0.1 6.2 2.1 8.4l119.5 128c3.2 3.3 8.5 3.4 11.9 0.3 3.4-3.2 3.6-8.5 0.5-11.9l-119.5-128.1z" style="fill:#fff"/>
		</g>
	</g>
</g>
</svg>
