<?xml version="1.0" encoding="UTF-8"?>
<svg width="1024" height="1024" fill="none" version="1.1" viewBox="0 0 1024 1024" xmlns="http://www.w3.org/2000/svg" xmlns:cc="http://creativecommons.org/ns#" xmlns:dc="http://purl.org/dc/elements/1.1/" xmlns:rdf="http://www.w3.org/1999/02/22-rdf-syntax-ns#">
 <metadata>
  <rdf:RDF>
   <cc:Work rdf:about="">
    <dc:format>image/svg+xml</dc:format>
    <dc:type rdf:resource="http://purl.org/dc/dcmitype/StillImage"/>
    <dc:title/>
   </cc:Work>
  </rdf:RDF>
 </metadata>
 <path d="m769.15 210.61c-19.241 0.30937-60.547 7.9548-127.87 53.715-40.96-11.52-84.48-17.281-128-17.281s-87.04 5.7612-128 17.281c-97.92-65.92-140.8-52.48-140.8-52.48-28.16 70.4-10.241 122.88-5.1211 135.68-32.64 35.84-52.479 81.92-52.479 137.6 0 195.84 119.04 240 232.96 252.8-14.72 12.8-28.161 35.2-32.641 68.48-29.44 13.44-103.04 35.2-149.12-42.24-9.6-15.36-38.401-53.12-78.721-52.48-42.88 0.64-17.279 24.32 0.64062 33.92 21.76 12.16 46.72 57.6 52.48 72.32 10.24 28.8 43.52 83.84 172.16 60.16 0 42.88 0.63868 83.199 0.63868 95.359 0 13.44-9.5992 28.8-35.199 24.32 0 0 32.26 10.859 163.03 10.859s162.09-10.859 162.09-10.859c-25.6 5.12-35.199-10.88-35.199-24.32 0-17.28 0.64062-72.319 0.64062-140.8 0-48-16.001-78.721-34.561-94.721 113.92-12.8 233.6-56.321 233.6-252.8 0-56.32-19.84-101.76-52.48-137.6 5.12-12.8 23.041-65.28-5.1191-135.68 0 0-4.1875-1.375-12.934-1.2344z" style="fill:#fff"/>
</svg>
