<?xml version="1.0" encoding="UTF-8" standalone="no"?>
<!-- Generator: Adobe Illustrator 19.1.1, SVG Export Plug-In . SVG Version: 6.00 Build 0)  -->

<svg
   xmlns:dc="http://purl.org/dc/elements/1.1/"
   xmlns:cc="http://creativecommons.org/ns#"
   xmlns:rdf="http://www.w3.org/1999/02/22-rdf-syntax-ns#"
   xmlns:svg="http://www.w3.org/2000/svg"
   xmlns="http://www.w3.org/2000/svg"
   xmlns:sodipodi="http://sodipodi.sourceforge.net/DTD/sodipodi-0.dtd"
   xmlns:inkscape="http://www.inkscape.org/namespaces/inkscape"
   version="1.1"
   id="Layer_1"
   x="0px"
   y="0px"
   viewBox="0 0 36 40"
   enable-background="new 0 0 48 48"
   xml:space="preserve"
   sodipodi:docname="Robot-warn.svg"
   inkscape:version="0.92.3 (2405546, 2018-03-11)"
   width="36"
   height="40"><metadata
   id="metadata17"><rdf:RDF><cc:Work
       rdf:about=""><dc:format>image/svg+xml</dc:format><dc:type
         rdf:resource="http://purl.org/dc/dcmitype/StillImage" /><dc:title></dc:title></cc:Work></rdf:RDF></metadata><defs
   id="defs15" /><sodipodi:namedview
   pagecolor="#ffffff"
   bordercolor="#666666"
   borderopacity="1"
   objecttolerance="10"
   gridtolerance="10"
   guidetolerance="10"
   inkscape:pageopacity="0"
   inkscape:pageshadow="2"
   inkscape:window-width="1920"
   inkscape:window-height="1014"
   id="namedview13"
   showgrid="false"
   inkscape:snap-bbox="true"
   inkscape:bbox-paths="true"
   inkscape:bbox-nodes="true"
   inkscape:snap-bbox-midpoints="true"
   inkscape:snap-bbox-edge-midpoints="true"
   inkscape:snap-page="true"
   inkscape:zoom="13.906433"
   inkscape:cx="20.341159"
   inkscape:cy="25.996567"
   inkscape:window-x="0"
   inkscape:window-y="26"
   inkscape:window-maximized="1"
   inkscape:current-layer="Layer_1" />




<g
   id="g848"><path
     style="fill:#78909c"
     inkscape:connector-curvature="0"
     id="path2"
     d="M 19.969,40 H 16.031 C 14.909,40 14,39.091 14,37.969 V 26 h 8 V 37.969 C 22,39.091 21.091,40 19.969,40 Z" /><path
     style="fill:#90a4ae"
     inkscape:connector-curvature="0"
     id="path4"
     d="M 10,6.969 V 1.031 C 10,0.462 10.462,0 11.031,0 H 24.969 C 25.538,0 26,0.462 26,1.031 V 6.969 C 26,7.538 25.538,8 24.969,8 H 11.031 C 10.462,8 10,7.538 10,6.969 Z M 6.263,13.035 C 5.729,12.891 5.18,13.204 5.035,13.737 L 2.203,24.121 C 0.937,24.473 0,25.623 0,27 c 0,0.553 0.448,1 1,1 0.552,0 1,-0.447 1,-1 0,-0.552 0.449,-1 1,-1 0.551,0 1,0.448 1,1 0,0.553 0.448,1 1,1 0.552,0 1,-0.447 1,-1 0,-1.213 -0.727,-2.255 -1.765,-2.727 l 2.73,-10.01 C 7.11,13.73 6.796,13.181 6.263,13.035 Z M 33.797,24.121 30.965,13.737 c -0.146,-0.534 -0.699,-0.845 -1.228,-0.702 -0.533,0.146 -0.848,0.695 -0.702,1.228 l 2.73,10.01 C 30.727,24.745 30,25.787 30,27 c 0,0.553 0.447,1 1,1 0.553,0 1,-0.447 1,-1 0,-0.552 0.448,-1 1,-1 0.552,0 1,0.448 1,1 0,0.553 0.447,1 1,1 0.553,0 1,-0.447 1,-1 0,-1.377 -0.937,-2.527 -2.203,-2.879 z M 25.376,11 H 10.624 c -1.5599996,0 -2.7799996,1.347 -2.6239996,2.9 l 1.473,14.725 C 9.6070004,29.973 10.742,31 12.097,31 h 11.806 c 1.355,0 2.49,-1.027 2.624,-2.375 L 28,13.9 C 28.155,12.347 26.936,11 25.376,11 Z" /><rect
     style="fill:#607d8b"
     id="rect6"
     height="5"
     width="8"
     y="16"
     x="14" /><path
     style="fill:#455a64"
     inkscape:connector-curvature="0"
     id="path8"
     d="M 21,6 H 15 C 13.9,6 13,5.1 13,4 v 0 c 0,-1.1 0.9,-2 2,-2 h 6 c 1.1,0 2,0.9 2,2 v 0 c 0,1.1 -0.9,2 -2,2 z M 8.0000004,14 C 8.0000004,12.895 7.105,12 6,12 c -1.105,0 -2,0.895 -2,2 0,1.105 0.895,2 2,2 1.105,0 2.0000004,-0.895 2.0000004,-2 z M 22,31 h -8 v 2 h 8 z m 0,4 h -2 c -0.552,0 -1,0.448 -1,1 v 0 c 0,0.552 0.448,1 1,1 h 2 z m -5,1 v 0 c 0,-0.552 -0.448,-1 -1,-1 h -2 v 2 h 2 c 0.552,0 1,-0.448 1,-1 z M 30,16 c 1.105,0 2,-0.895 2,-2 0,-1.105 -0.895,-2 -2,-2 -1.105,0 -2,0.895 -2,2 0,1.105 0.895,2 2,2 z M 19,9.2769996 V 8 H 17 V 9.2769996 C 16.405,9.6229996 16,10.261 16,11 h 1 2 1 C 20,10.262 19.595,9.6239996 19,9.2769996 Z" /><path
     style="fill:#f2ff18;fill-opacity:1"
     inkscape:connector-curvature="0"
     id="path10"
     d="m 14,4 c 0,-0.552 0.448,-1 1,-1 0.552,0 1,0.448 1,1 0,0.552 -0.448,1 -1,1 -0.552,0 -1,-0.448 -1,-1 z m 7,1 c 0.552,0 1,-0.448 1,-1 0,-0.552 -0.448,-1 -1,-1 -0.552,0 -1,0.448 -1,1 0,0.552 0.448,1 1,1 z" /></g>
</svg>